<?xml version="1.0" standalone="no"?>
<!DOCTYPE svg PUBLIC "-//W3C//DTD SVG 20010904//EN"
 "http://www.w3.org/TR/2001/REC-SVG-20010904/DTD/svg10.dtd">
<svg version="1.0" xmlns="http://www.w3.org/2000/svg"
 width="1044.000000pt" height="1280.000000pt" viewBox="0 0 1044.000000 1280.000000"
 preserveAspectRatio="xMidYMid meet">
<metadata>
Created by potrace 1.15, written by Peter Selinger 2001-2017
</metadata>
<g transform="translate(0.000000,1280.000000) scale(0.100000,-0.100000)"
fill="#000000" stroke="none">
<path d="M3276 12683 c-3 -59 -6 -188 -7 -285 0 -98 -4 -178 -7 -178 -4 0 -56
52 -117 115 -60 64 -117 115 -126 115 -10 0 -20 -11 -23 -25 -14 -56 28 -138
139 -275 81 -100 95 -134 105 -263 5 -62 5 -130 2 -152 -10 -56 -33 -52 -53
10 -10 27 -22 51 -28 53 -22 7 -33 46 -41 138 -10 112 -39 177 -82 182 -34 4
-63 -36 -63 -90 0 -32 -3 -38 -20 -38 -20 0 -81 36 -138 82 -31 25 -93 30
-108 8 -25 -39 4 -101 119 -250 40 -52 62 -90 60 -103 -2 -12 -19 -29 -42 -41
-51 -27 -63 -47 -51 -82 25 -69 95 -79 160 -23 18 16 36 26 38 22 3 -4 8 -43
12 -86 11 -114 3 -119 -101 -62 -96 52 -121 56 -130 21 -12 -49 20 -102 116
-194 l55 -53 -35 4 c-49 6 -75 -6 -90 -42 -24 -59 -54 -51 -240 69 -58 38
-135 83 -172 101 -78 38 -98 32 -98 -30 0 -58 45 -120 119 -161 69 -38 70 -37
-30 -54 -45 -8 -89 -41 -89 -66 0 -10 12 -28 27 -40 22 -17 36 -20 68 -16 35
6 41 4 50 -16 7 -15 20 -24 40 -26 39 -5 53 -18 26 -27 -12 -3 -21 -12 -21
-20 0 -13 40 -52 94 -91 l29 -21 -94 -17 c-114 -21 -157 -40 -165 -73 -8 -29
19 -70 59 -93 23 -13 31 -13 74 3 26 9 68 17 92 17 36 0 48 -5 75 -34 46 -50
96 -52 144 -6 27 25 40 30 83 30 l52 0 -67 -63 c-36 -34 -66 -68 -66 -75 0 -7
16 -20 35 -28 44 -18 90 -8 141 31 38 29 38 29 24 -45 -12 -62 -2 -80 42 -80
37 0 68 16 68 35 0 19 16 19 24 0 11 -30 34 -14 66 47 l34 63 23 -53 c28 -65
43 -126 34 -141 -13 -20 -73 -31 -233 -43 -200 -15 -251 -7 -362 59 -128 75
-188 103 -227 103 -41 0 -64 -20 -55 -48 7 -20 68 -67 124 -96 19 -10 32 -20
29 -22 -2 -3 -38 2 -78 11 -95 21 -276 109 -357 175 -93 75 -151 90 -187 49
-19 -21 -19 -22 10 -91 10 -25 -18 -33 -160 -47 -66 -7 -132 -17 -147 -22 -54
-21 -44 -62 24 -102 92 -53 216 -72 358 -54 l65 9 -61 -40 c-67 -43 -94 -75
-94 -108 0 -30 31 -54 69 -54 39 0 118 39 151 75 46 51 101 85 137 85 48 0 38
-19 -23 -48 -59 -28 -104 -69 -104 -94 0 -9 13 -24 29 -32 32 -17 41 -34 41
-75 0 -15 5 -32 12 -39 17 -17 58 -15 65 3 7 21 88 61 139 70 51 10 68 18 136
71 61 48 68 51 68 31 0 -18 -75 -87 -147 -136 -69 -46 -84 -72 -57 -102 32
-35 113 -20 158 30 30 33 37 25 30 -34 -6 -52 -6 -55 15 -55 23 0 50 25 110
99 l34 43 25 -26 26 -26 32 31 c29 28 41 32 106 37 78 5 132 24 188 66 49 37
90 102 90 143 0 48 16 41 29 -13 10 -41 9 -51 -9 -90 -44 -89 -268 -252 -530
-384 l-59 -30 -163 80 c-89 44 -175 80 -190 80 -43 0 -38 -43 14 -115 l42 -59
-39 24 c-25 15 -56 24 -89 26 -35 1 -75 14 -130 40 -93 44 -109 41 -110 -27
l-1 -44 -59 -3 c-35 -2 -79 3 -107 12 -67 22 -83 20 -124 -15 -31 -27 -36 -37
-33 -68 l3 -36 53 1 c28 1 52 0 52 -3 0 -3 -13 -22 -29 -42 -49 -61 -46 -65
44 -71 86 -5 86 -5 71 -64 -7 -30 7 -36 64 -26 65 12 72 6 64 -51 -8 -57 -4
-58 68 -32 60 21 93 11 125 -36 29 -43 29 -82 0 -109 -29 -27 -43 -28 -57 -1
-17 31 -71 49 -144 49 -55 0 -67 -3 -76 -20 -9 -16 -17 -18 -60 -13 -67 8 -67
-11 0 -76 43 -42 50 -54 50 -87 0 -58 -18 -114 -37 -114 -9 0 -48 26 -87 57
-91 73 -87 70 -127 87 -22 9 -42 11 -56 5 l-23 -8 20 -51 c11 -28 20 -57 20
-65 0 -21 -43 -19 -175 5 -132 24 -164 25 -172 4 -14 -37 124 -125 220 -139
26 -4 47 -10 47 -14 0 -3 -9 -19 -20 -36 -11 -16 -20 -35 -20 -42 0 -21 39
-34 109 -37 79 -3 87 -6 94 -44 7 -33 27 -42 93 -42 51 0 74 -23 74 -73 0 -20
4 -37 9 -37 5 0 30 25 56 56 48 56 61 59 67 14 1 -14 10 -26 18 -26 8 -1 21
-2 27 -3 7 0 26 -27 42 -58 16 -33 51 -78 80 -104 29 -27 51 -55 51 -67 0 -25
18 -40 60 -49 21 -4 51 -23 77 -50 24 -23 49 -43 56 -43 7 0 35 20 64 45 62
54 80 59 32 9 -46 -49 -171 -107 -299 -138 -258 -62 -322 -61 -441 8 -119 69
-160 61 -139 -29 8 -33 6 -42 -8 -53 -25 -20 -133 -8 -181 19 -37 20 -40 21
-74 4 -42 -20 -71 -50 -62 -64 3 -6 37 -31 75 -55 79 -51 92 -71 88 -129 l-3
-42 57 -1 c72 -1 88 -13 81 -62 -4 -30 0 -41 17 -57 33 -30 103 -26 157 8 24
15 45 27 47 27 3 0 -4 -16 -15 -35 -19 -31 -20 -39 -9 -65 16 -38 45 -46 116
-32 61 13 84 8 84 -17 0 -39 -151 -91 -270 -92 -86 -1 -110 7 -181 56 -74 51
-129 42 -114 -18 9 -33 -17 -39 -119 -26 -173 22 -197 -26 -43 -87 72 -28 97
-55 97 -103 0 -30 6 -44 22 -55 28 -20 88 -20 134 -1 46 19 54 13 54 -36 0
-67 13 -81 73 -77 31 2 51 -1 51 -7 -1 -5 -5 -25 -9 -44 l-7 -34 50 6 c47 5
53 4 70 -20 27 -37 49 -26 151 72 100 96 140 119 188 112 42 -7 103 -44 103
-63 0 -18 -42 -28 -91 -20 -54 9 -88 -2 -95 -29 -6 -23 20 -83 58 -138 25 -35
17 -57 -21 -57 -41 0 -72 -13 -125 -54 -26 -19 -63 -38 -84 -42 -20 -3 -50
-15 -65 -26 -31 -21 -114 -38 -194 -38 -28 0 -80 -9 -115 -20 -41 -13 -91 -20
-145 -20 -91 0 -103 -8 -118 -76 -3 -18 -14 -39 -23 -47 -19 -17 -150 -37
-243 -37 -78 0 -93 -19 -49 -60 47 -44 151 -92 217 -99 31 -3 58 -11 60 -17 2
-5 -12 -28 -32 -51 -19 -23 -35 -45 -35 -51 0 -5 28 -13 62 -18 l63 -9 -3 -37
c-3 -35 -1 -38 22 -38 14 0 58 7 98 15 72 16 141 13 164 -6 7 -6 10 -27 6 -54
-4 -38 -2 -45 12 -45 32 0 55 20 88 75 18 30 36 55 40 55 5 0 8 -19 8 -43 0
-63 14 -76 94 -88 125 -17 166 5 206 111 12 33 26 60 29 60 4 0 19 -32 32 -71
l25 -71 53 71 c29 39 57 71 62 71 5 0 9 -19 9 -43 0 -49 20 -83 42 -74 9 3 28
37 42 75 25 64 45 90 60 75 3 -3 3 -17 0 -29 -7 -28 4 -30 89 -13 31 6 63 9
71 6 45 -18 -66 -114 -180 -156 -31 -12 -84 -25 -119 -30 -69 -10 -99 -23
-113 -47 -11 -20 -71 -33 -157 -34 -147 -1 -172 -17 -120 -78 32 -38 96 -64
165 -67 30 -2 65 -3 78 -4 38 -2 28 -37 -16 -54 -84 -34 -210 -46 -715 -72
-443 -23 -568 -38 -594 -72 -10 -13 -24 -15 -68 -10 -66 7 -85 2 -85 -22 0
-39 83 -89 163 -98 97 -11 116 -41 44 -72 -24 -11 -70 -44 -103 -75 l-59 -55
97 6 97 6 10 -27 c10 -24 15 -26 66 -26 50 0 56 -2 65 -25 17 -45 86 -28 143
34 16 17 37 31 48 31 17 0 18 -3 8 -23 -7 -12 -25 -39 -41 -59 -43 -55 -35
-73 30 -73 43 1 57 6 81 29 41 39 61 31 94 -36 24 -50 32 -58 55 -58 28 0 96
38 165 92 21 17 40 28 43 25 3 -2 0 -34 -7 -69 -15 -84 -7 -118 27 -118 32 0
54 12 133 72 35 26 66 47 67 45 2 -2 -6 -26 -18 -54 -30 -71 -21 -87 42 -78
43 6 56 3 95 -20 l45 -26 9 25 c6 13 19 27 30 31 27 8 61 -11 61 -34 0 -35 29
-46 116 -46 46 0 85 -4 86 -10 9 -30 -211 -123 -414 -175 -153 -38 -390 -74
-441 -66 -23 4 -66 22 -98 41 -77 47 -127 67 -150 60 -39 -13 -13 -63 49 -95
39 -19 19 -22 -80 -11 -51 6 -147 16 -213 21 -79 6 -166 21 -255 44 -156 41
-150 40 -150 22 0 -44 182 -155 287 -176 117 -23 124 -28 42 -29 -118 -2 -164
-25 -138 -72 14 -26 36 -34 142 -49 48 -7 87 -16 87 -21 0 -6 -18 -27 -41 -49
-24 -23 -38 -44 -34 -50 9 -15 58 -8 108 14 40 18 39 18 51 -37 6 -25 10 -27
59 -27 46 0 176 26 232 46 13 5 7 -7 -20 -35 -45 -48 -39 -62 25 -54 44 6 80
-10 80 -37 0 -69 35 -65 104 12 l56 63 -45 -85 c-50 -95 -55 -125 -25 -135 36
-12 151 31 205 76 53 44 63 40 45 -18 -20 -62 -49 -102 -93 -127 -75 -43 -402
-148 -502 -161 -41 -6 -66 -1 -139 24 -107 37 -218 61 -285 61 -86 0 -99 -16
-60 -72 12 -16 19 -32 16 -34 -3 -3 -59 8 -124 24 -65 16 -137 33 -160 36 -47
7 -93 -7 -93 -27 0 -7 25 -42 55 -77 30 -35 53 -65 51 -67 -2 -3 -35 5 -73 16
-132 39 -297 45 -338 11 -14 -12 -14 -15 2 -32 43 -48 180 -95 307 -106 l89
-7 -57 -45 c-67 -53 -99 -99 -94 -137 3 -25 7 -28 43 -28 55 0 65 -9 65 -61 0
-51 25 -84 65 -84 32 0 93 -31 119 -59 11 -12 29 -21 41 -21 25 0 114 56 122
77 8 19 19 16 57 -17 56 -50 81 -140 39 -140 -12 0 -14 -7 -9 -30 l6 -31 -90
7 c-63 5 -90 4 -90 -4 0 -22 -45 -35 -153 -43 -121 -9 -148 -21 -128 -57 33
-63 118 -81 276 -59 55 8 101 13 103 12 2 -2 -32 -22 -75 -45 -123 -66 -159
-113 -117 -154 19 -19 22 -19 70 -3 22 8 52 17 68 21 l30 7 -24 -19 c-16 -13
-21 -24 -16 -37 6 -16 15 -17 73 -12 l66 7 -26 -28 c-15 -16 -27 -31 -27 -35
0 -17 67 -5 130 23 100 44 131 38 70 -13 -60 -51 -26 -76 68 -50 109 30 105
30 97 -6 -7 -34 3 -39 49 -21 14 5 26 6 26 2 -1 -17 -18 -32 -55 -48 -35 -15
-99 -18 -470 -23 -237 -3 -436 -10 -443 -14 -20 -13 3 -34 46 -41 40 -6 112
-59 112 -81 0 -25 -40 -37 -154 -47 -135 -12 -196 -34 -196 -72 0 -80 191 -91
389 -22 41 14 76 26 78 26 13 0 -6 -31 -57 -92 -66 -78 -80 -109 -59 -134 17
-20 68 -13 154 21 34 14 67 25 73 25 13 0 19 -18 27 -90 9 -76 23 -110 47
-110 48 0 198 95 198 126 0 20 28 17 39 -5 8 -13 3 -43 -15 -111 -14 -51 -23
-95 -19 -98 15 -15 105 50 240 174 80 74 148 134 151 134 7 0 -22 -49 -61
-104 -34 -47 -44 -91 -29 -130 11 -28 35 -18 107 47 l70 62 -6 -54 c-7 -63
-31 -93 -85 -109 -85 -26 -284 -55 -377 -56 -90 -1 -106 2 -165 28 -49 22 -81
29 -129 30 -75 1 -89 -14 -40 -43 l33 -20 -122 6 c-67 3 -122 3 -122 -1 0 -4
11 -22 25 -40 14 -18 25 -38 25 -44 0 -8 -34 -11 -108 -10 -82 1 -117 -3 -149
-16 -66 -28 -53 -60 27 -71 101 -14 110 -16 110 -31 0 -17 -44 -45 -155 -96
-95 -44 -165 -92 -165 -112 0 -38 76 -32 246 20 153 46 196 45 117 -5 -57 -34
-77 -67 -74 -113 1 -20 40 -24 104 -9 44 11 46 3 12 -47 -32 -46 -32 -62 0
-62 31 0 94 31 156 76 26 19 50 34 54 34 7 0 4 -27 -11 -84 -8 -34 9 -34 48
-1 17 14 32 24 34 22 2 -2 -1 -18 -7 -36 -16 -45 -4 -50 34 -14 53 49 89 73
109 73 18 0 19 -6 16 -52 -3 -51 -2 -53 23 -56 16 -2 62 16 122 47 53 28 101
51 107 51 6 0 18 -7 26 -15 17 -17 42 -18 97 -6 20 5 37 5 37 1 0 -13 -92 -44
-259 -86 -85 -21 -168 -48 -185 -59 -40 -27 -45 -59 -12 -80 27 -18 75 -12
190 21 57 16 76 18 76 6 0 -5 -39 -50 -86 -101 -100 -109 -100 -122 -1 -102
34 7 100 28 147 48 47 19 97 40 112 46 15 6 30 8 34 4 3 -3 -14 -42 -40 -85
-62 -106 -61 -112 13 -112 l59 0 6 -35 c9 -47 30 -45 93 10 28 25 54 45 57 45
3 0 6 -18 6 -39 0 -51 26 -72 79 -64 62 10 113 42 182 114 l65 69 -15 -73
c-35 -173 28 -181 181 -23 59 61 89 85 92 75 3 -7 9 -45 15 -82 18 -126 54
-146 128 -72 24 25 48 45 52 45 5 0 23 -16 40 -35 37 -42 47 -44 56 -8 11 48
33 73 64 73 34 0 54 22 71 75 17 56 26 62 52 38 54 -49 115 -57 151 -20 13 12
46 65 74 117 50 92 96 150 109 137 3 -3 1 -29 -5 -58 -6 -29 -8 -56 -3 -61 12
-12 111 52 144 93 16 19 32 55 36 80 l8 44 13 -38 c7 -20 19 -37 27 -37 23 0
44 62 45 132 0 35 4 72 8 83 8 19 8 19 20 -3 16 -30 69 -62 103 -62 54 0 61
-21 54 -150 -15 -248 -51 -403 -139 -593 l-37 -77 403 2 402 3 3 36 c2 21 -9
67 -27 115 -38 103 -64 263 -59 359 4 94 17 109 59 69 17 -16 37 -42 45 -57
18 -34 83 -107 95 -107 12 0 11 42 -1 74 -10 27 0 35 18 14 6 -7 29 -50 52
-96 23 -45 49 -86 58 -91 10 -5 44 -12 77 -16 33 -3 80 -16 103 -28 41 -20 45
-20 57 -4 18 26 33 21 93 -28 30 -25 63 -45 75 -45 18 0 19 5 14 55 -6 59 0
66 28 35 9 -10 38 -27 63 -36 43 -17 45 -17 59 2 24 32 128 25 292 -22 23 -7
24 -6 17 34 -4 31 -3 42 6 42 23 0 88 -21 88 -28 -1 -4 -14 -23 -30 -42 -38
-43 -38 -50 3 -50 32 0 124 40 186 82 30 19 34 20 28 5 -8 -22 16 -72 38 -81
35 -13 57 -4 140 59 47 37 90 63 95 60 15 -10 12 -54 -7 -86 -17 -28 -17 -29
11 -58 42 -44 62 -45 106 -5 l39 35 22 -43 c12 -24 23 -45 24 -46 2 -2 20 15
40 37 40 44 60 50 91 26 38 -29 64 -12 110 70 9 15 20 19 42 17 17 -2 41 2 54
9 l22 12 -18 -28 c-29 -45 -7 -49 78 -15 107 42 133 39 81 -10 l-25 -24 20
-21 c15 -16 19 -30 14 -49 -7 -30 -4 -31 62 -11 60 18 167 20 194 3 18 -11 28
-9 70 13 l50 27 0 -39 c0 -50 16 -51 77 -4 52 40 56 41 73 20 9 -11 17 -12 32
-4 11 6 50 15 86 20 75 11 94 25 127 90 13 25 31 51 40 59 15 13 16 10 10 -23
-9 -47 4 -48 47 0 66 74 87 93 97 93 33 0 24 -166 -15 -273 -14 -40 -28 -91
-31 -114 l-5 -43 326 0 c179 0 326 2 326 4 0 2 -22 50 -49 107 -27 57 -54 124
-59 150 -16 64 -37 273 -29 291 3 9 24 19 46 23 22 4 52 17 66 31 14 13 27 24
29 24 2 0 6 -27 9 -60 11 -97 33 -124 61 -72 l15 27 1 -25 c0 -36 25 -67 78
-101 66 -41 75 -39 66 17 -9 64 9 56 64 -27 77 -116 90 -129 125 -129 18 0 47
9 65 20 18 11 35 20 37 20 3 0 12 -17 20 -37 18 -42 30 -53 63 -53 16 0 27
-10 39 -35 9 -19 20 -35 23 -35 4 0 17 11 30 25 13 14 27 25 31 25 5 0 24 -13
42 -30 64 -55 97 -36 111 64 3 21 7 41 10 44 3 3 35 -21 70 -52 70 -61 124
-90 146 -76 10 6 11 24 6 72 l-6 65 48 -47 c66 -64 169 -99 200 -68 7 7 12 24
12 39 l0 28 51 -35 c61 -41 67 -41 75 -10 5 21 13 25 52 28 25 2 47 8 49 14 2
6 -12 31 -32 57 -60 79 -53 81 98 27 59 -21 101 -30 130 -28 l42 3 -75 72
c-41 40 -70 73 -63 73 6 0 42 -7 79 -16 36 -8 85 -14 108 -12 34 2 42 7 44 26
4 30 -30 44 -200 81 -124 27 -188 46 -188 54 0 2 25 2 55 -1 37 -3 55 -1 55 7
0 17 17 13 100 -24 43 -19 90 -35 105 -35 26 0 27 2 21 35 -6 31 -5 35 15 35
12 0 44 -16 72 -36 l50 -36 -6 31 c-7 34 -1 34 36 3 24 -21 30 -10 19 32 -6
20 -7 36 -2 36 5 0 35 -15 67 -34 100 -59 147 -57 103 5 -12 16 -21 32 -19 34
2 2 24 0 48 -5 25 -4 51 -6 58 -3 29 11 6 55 -48 89 -23 14 -39 28 -36 30 3 3
61 -8 129 -25 131 -33 182 -38 194 -20 10 16 -29 44 -104 74 -108 44 -153 67
-149 79 2 6 30 14 61 17 32 4 65 13 73 22 27 27 -19 41 -131 42 -58 1 -101 6
-103 11 -2 6 6 19 17 29 36 33 24 38 -77 31 -77 -5 -93 -3 -75 6 12 6 22 18
22 26 0 20 -82 12 -167 -17 -74 -25 -130 -26 -272 -6 -134 19 -199 35 -213 52
-16 19 -29 96 -14 85 6 -5 32 -25 57 -45 51 -41 61 -44 79 -22 18 22 5 60 -37
106 -62 68 -29 54 82 -36 100 -81 188 -135 200 -124 3 3 -4 32 -15 64 -20 59
-19 95 3 95 7 0 18 -9 24 -19 13 -21 127 -81 153 -81 21 0 40 40 40 83 0 59 9
63 92 39 83 -25 99 -27 115 -11 16 16 -4 53 -56 104 -23 21 -41 42 -41 46 0 8
36 0 123 -26 80 -23 216 -18 246 9 19 18 20 21 5 37 -17 19 -46 26 -172 38
-46 5 -89 14 -95 20 -17 17 19 49 72 65 118 34 24 46 -373 46 -277 0 -337 6
-365 35 -15 15 -13 16 22 10 33 -7 37 -5 37 14 0 25 0 25 70 6 84 -22 116 -5
63 33 -42 31 -21 37 48 13 35 -12 73 -21 86 -21 26 0 31 18 8 26 -29 12 -14
19 31 15 55 -4 77 12 48 34 -18 14 -17 15 11 9 17 -4 41 -11 54 -16 28 -10 57
-3 64 16 10 25 -25 58 -97 91 l-70 33 125 -5 126 -6 34 31 c44 41 34 47 -84
56 -56 4 -101 13 -116 23 -19 12 -39 14 -88 10 -59 -6 -64 -5 -58 12 3 12 0
21 -10 25 -26 10 -17 45 23 88 l38 41 27 -26 c15 -13 40 -30 56 -37 25 -10 35
-8 86 19 32 17 68 31 80 31 29 0 41 16 50 63 7 35 9 37 46 37 72 0 59 52 -27
113 l-45 32 83 11 c46 6 114 21 150 33 212 70 1 110 -239 45 -16 -5 -9 7 28
44 28 28 48 56 44 61 -10 18 -99 13 -201 -11 -52 -12 -97 -18 -101 -15 -3 4 1
15 10 25 26 28 21 40 -20 46 -41 7 -154 -11 -273 -44 -91 -25 -110 -22 -340
42 -129 35 -157 46 -194 71 -27 19 -73 103 -62 114 2 3 20 -7 39 -21 64 -49
187 -76 187 -41 0 16 -28 72 -57 115 -10 14 6 4 34 -22 29 -27 57 -48 62 -48
6 0 13 11 17 25 8 32 37 48 72 41 15 -3 33 -2 40 3 11 6 6 15 -20 36 -19 15
-25 24 -14 21 10 -4 59 -13 107 -22 96 -16 129 -10 129 26 0 24 8 25 60 4 22
-9 48 -13 57 -9 15 5 12 11 -20 42 -21 19 -37 36 -35 38 2 2 40 8 86 13 74 9
112 23 112 41 -1 25 -25 35 -97 41 l-78 6 73 13 c81 14 195 66 232 106 l23 25
-24 0 c-13 0 -62 -9 -109 -20 -47 -11 -139 -25 -205 -30 -66 -5 -151 -12 -190
-15 l-70 -6 37 21 c24 13 38 28 38 40 0 30 -35 25 -120 -16 -75 -36 -75 -36
-175 -30 -142 8 -344 48 -490 98 -141 49 -174 86 -64 74 64 -8 94 2 104 34 8
25 60 28 74 3 8 -16 11 -16 48 1 28 12 51 15 75 11 47 -9 55 6 30 55 -11 22
-17 40 -15 40 2 0 24 -14 49 -31 57 -39 109 -60 128 -53 18 7 21 52 7 102 -5
17 -8 32 -6 32 1 0 33 -18 70 -41 91 -55 111 -55 147 -1 33 48 40 50 75 22 26
-21 107 -28 117 -11 3 4 -10 26 -29 49 -19 22 -35 43 -35 46 0 13 25 5 56 -19
59 -45 114 -54 114 -19 0 10 14 14 48 14 37 0 50 4 60 21 13 20 20 21 85 15
l72 -6 -45 40 c-25 23 -57 43 -72 47 -15 3 -32 11 -38 19 -15 17 10 30 77 39
57 7 118 42 118 65 0 11 -14 15 -57 16 -32 1 -64 6 -70 12 -21 17 -151 31
-388 42 -502 23 -659 38 -697 65 -27 20 -11 27 75 35 83 7 138 30 148 63 3 10
4 21 1 24 -3 2 -55 8 -116 12 -86 6 -115 11 -131 26 -11 10 -52 23 -94 31 -78
13 -211 69 -234 97 -8 9 -11 21 -7 27 7 11 26 10 108 -6 24 -5 27 -3 27 20 0
39 26 22 46 -30 22 -59 42 -75 60 -49 8 10 14 33 14 49 l1 31 48 -52 49 -52
22 52 22 51 20 -39 c39 -77 52 -85 143 -85 91 0 105 8 105 57 0 43 13 42 40
-2 39 -63 98 -74 85 -15 -6 26 -3 30 20 36 26 6 98 1 178 -12 38 -7 39 -6 35
22 -3 28 -2 29 50 32 28 2 52 6 52 10 0 4 -14 24 -30 44 l-31 37 38 6 c92 14
219 73 210 98 -2 8 -43 15 -113 19 -127 9 -151 17 -160 55 -11 46 -22 53 -86
53 -33 0 -86 6 -117 14 -31 8 -96 17 -146 21 -49 3 -99 12 -110 19 -11 7 -36
17 -55 21 -19 4 -55 20 -80 35 -25 15 -64 31 -87 35 -24 4 -43 9 -43 12 0 4
11 20 23 37 66 87 60 106 -33 106 -38 0 -72 4 -75 10 -10 16 57 50 97 50 36 0
78 -26 166 -101 42 -37 81 -48 94 -25 8 14 18 16 54 10 l45 -6 -6 35 -7 35 45
-5 c40 -5 45 -3 50 18 4 13 7 35 7 48 0 20 4 22 23 17 90 -28 147 -15 147 34
0 34 23 53 91 75 26 9 53 23 60 31 22 27 -9 35 -108 28 l-91 -6 -4 28 c-4 40
-31 41 -100 5 -31 -17 -75 -33 -96 -37 -74 -12 -272 35 -272 64 0 16 28 22 75
16 67 -10 95 1 95 34 0 15 -6 34 -12 41 -11 12 -9 13 7 6 86 -34 103 -37 132
-23 22 10 29 21 31 51 3 40 7 41 80 37 30 -1 32 1 32 32 0 45 10 57 72 93 29
17 53 38 53 45 0 8 -15 23 -33 33 -32 19 -35 19 -70 3 -26 -12 -57 -16 -97
-14 l-60 3 3 42 c5 60 -13 63 -106 17 -71 -36 -83 -39 -157 -37 -157 2 -379
62 -441 119 l-39 35 44 -31 c53 -36 65 -37 103 -5 16 13 46 29 68 35 27 7 41
18 47 35 4 13 23 34 42 47 19 13 47 43 61 68 17 29 34 46 49 48 13 2 26 12 28
23 7 26 14 24 53 -16 40 -41 50 -43 50 -11 0 33 19 46 80 53 42 5 53 10 61 29
10 27 6 26 81 29 31 1 64 7 72 14 14 12 14 16 -5 39 -19 25 -19 27 -2 33 10 4
29 8 42 8 13 1 53 15 88 33 100 49 98 80 -4 67 -124 -16 -213 -22 -213 -13 1
5 7 20 15 34 48 84 -26 77 -155 -16 -57 -41 -67 -42 -80 -8 -20 52 -12 81 30
115 53 43 53 63 0 56 -27 -3 -43 -1 -51 9 -24 29 -149 13 -176 -23 -10 -13
-17 -14 -38 -5 -37 17 -34 62 6 96 36 30 33 30 92 12 25 -7 48 -12 51 -9 2 3
2 21 -1 40 l-6 35 54 -4 54 -3 0 30 c0 30 0 30 63 33 34 2 62 6 62 9 0 3 -12
22 -27 41 l-26 35 35 -6 c60 -9 78 31 33 73 -27 26 -50 27 -144 10 -83 -15
-110 -5 -103 39 5 39 -4 39 -92 6 -37 -14 -82 -25 -102 -25 -19 0 -48 -7 -65
-15 l-30 -16 31 42 c34 47 39 79 13 79 -15 0 -141 -49 -263 -103 l-35 -15
-145 72 c-151 75 -287 161 -321 204 -20 26 -25 77 -10 100 6 10 10 6 15 -14
20 -77 104 -132 221 -143 47 -4 81 -13 93 -24 23 -21 36 -21 52 -1 12 13 20 9
64 -35 29 -28 60 -51 70 -51 16 0 18 5 12 40 -3 22 -5 40 -3 40 2 0 18 -11 37
-25 55 -40 142 -28 125 17 -3 8 -33 30 -65 48 -61 34 -118 85 -108 96 3 3 31
-11 62 -32 30 -20 76 -40 100 -45 46 -8 98 -29 129 -51 22 -17 51 0 55 33 2
13 15 34 29 46 36 30 25 49 -47 80 -33 15 -60 30 -60 35 0 17 59 7 91 -17 98
-72 124 -85 163 -85 58 0 73 12 60 47 -6 18 -26 37 -56 53 -26 14 -49 28 -52
31 -3 2 42 3 99 1 120 -5 224 20 263 61 37 40 11 51 -145 66 -56 5 -107 12
-112 15 -6 4 -4 16 4 32 17 33 10 52 -21 60 -36 9 -68 -2 -138 -50 -64 -44
-187 -97 -267 -115 -78 -18 -87 -12 -29 20 77 42 86 52 64 73 -24 25 -64 15
-192 -47 l-107 -52 -175 2 c-208 2 -236 8 -232 48 2 16 13 46 24 69 23 45 16
47 70 -26 13 -18 19 -21 29 -11 10 10 16 10 30 -3 10 -9 30 -14 51 -12 33 3
33 3 30 51 l-3 47 33 -20 c38 -23 110 -27 127 -7 11 14 -8 36 -73 85 l-29 22
47 0 c33 0 52 -6 67 -21 31 -31 86 -30 109 1 16 21 27 25 67 24 26 -1 68 -5
93 -9 40 -6 48 -4 73 19 15 14 27 29 27 34 0 23 -45 44 -126 59 -86 16 -87 17
-64 32 13 9 36 26 50 39 24 22 25 22 6 37 -19 14 -19 15 7 15 16 0 32 8 39 20
10 16 20 18 49 14 29 -5 41 -2 59 16 21 21 21 23 4 41 -9 10 -43 24 -77 30
l-60 12 57 29 c83 42 120 113 74 142 -19 12 -63 -7 -228 -96 -117 -65 -149
-71 -174 -33 -13 20 -25 25 -59 25 l-42 1 35 27 c65 49 110 102 110 128 0 38
-25 39 -102 5 -39 -17 -75 -31 -79 -31 -12 0 -11 117 0 125 6 3 25 -4 43 -15
40 -24 66 -25 96 -4 36 25 26 65 -20 87 -21 9 -38 21 -38 26 0 11 34 55 87
113 57 63 81 112 63 133 -19 23 -63 18 -106 -13 -70 -49 -124 -63 -111 -28 9
22 -21 76 -41 76 -37 0 -63 -43 -76 -129 -10 -59 -19 -88 -35 -102 -11 -11
-21 -28 -21 -38 0 -21 -27 -47 -38 -37 -13 14 -5 190 11 228 8 20 45 68 81
108 73 79 109 139 104 173 -6 40 -32 28 -123 -54 l-90 -82 -6 59 c-4 33 -7
123 -8 202 -1 78 -5 142 -10 142 -5 0 -27 -20 -49 -44 -44 -48 -53 -80 -50
-188 1 -64 -10 -98 -33 -98 -5 0 -22 20 -36 44 -31 51 -90 89 -131 84 -44 -5
-39 -36 17 -103 189 -227 185 -220 197 -345 l7 -65 -27 24 c-14 13 -36 25 -48
26 -17 1 -24 10 -29 32 -13 65 -106 192 -129 178 -5 -3 -10 -24 -10 -45 l0
-38 -58 29 c-68 34 -167 69 -194 69 -32 0 -19 -30 29 -63 95 -66 128 -102 83
-90 -12 3 -35 -6 -62 -26 -23 -17 -50 -31 -60 -31 -24 0 -35 -29 -17 -42 9 -5
76 -7 172 -3 104 4 157 3 157 -4 0 -15 -35 -31 -68 -31 -45 0 -172 -94 -172
-127 0 -28 73 -40 121 -19 11 5 31 -5 59 -29 26 -22 51 -35 64 -33 18 3 21 10
20 46 -1 38 2 42 23 42 35 0 90 -26 102 -48 21 -40 24 -99 6 -134 -12 -23 -19
-68 -24 -153 -5 -99 -9 -120 -22 -123 -22 -4 -152 85 -215 147 -31 30 -58 69
-69 98 -30 79 -102 183 -127 183 -5 0 -24 -17 -43 -37 -39 -42 -37 -43 -139
46 -60 54 -89 61 -109 29 -11 -17 9 -53 74 -130 l31 -38 -70 0 c-77 0 -126
-13 -120 -33 3 -6 26 -27 53 -44 27 -18 53 -42 57 -53 4 -11 19 -25 33 -32 28
-13 33 -43 9 -52 -9 -3 -30 -6 -48 -6 -77 0 -140 -48 -100 -77 10 -7 28 -13
41 -13 13 0 32 -9 43 -20 11 -11 28 -20 39 -20 11 0 23 -12 31 -30 7 -17 16
-33 21 -36 5 -2 31 7 58 21 28 14 55 25 60 25 14 0 54 -69 48 -84 -4 -9 -40
-18 -103 -26 -117 -14 -146 -24 -138 -44 8 -21 102 -66 136 -66 32 0 35 -6 12
-31 -22 -24 -13 -35 46 -54 31 -10 50 -22 50 -32 0 -22 -60 -11 -123 22 -60
31 -134 34 -168 6 l-23 -18 28 -27 29 -26 -47 -21 c-26 -11 -75 -24 -109 -30
-96 -14 -104 -17 -110 -39 -3 -13 -28 -31 -70 -50 -36 -16 -68 -34 -71 -39
-10 -15 44 -47 109 -66 33 -9 82 -24 109 -32 48 -14 49 -14 85 14 l36 29 23
-22 c12 -12 22 -31 22 -43 0 -41 19 -63 47 -56 56 14 143 88 162 138 11 29 38
36 47 12 4 -8 17 -15 30 -15 29 0 29 -1 4 -50 -25 -49 -25 -47 6 -53 64 -12
138 33 171 105 l20 41 7 -41 c3 -22 17 -54 30 -69 24 -27 26 -27 53 -13 15 9
43 37 60 64 26 38 33 59 33 96 0 59 7 80 27 80 26 0 10 -103 -29 -179 -47 -93
-68 -105 -186 -109 -53 -1 -107 -5 -119 -8 -32 -6 -29 -35 7 -69 16 -15 27
-31 25 -35 -11 -18 -136 -43 -184 -37 -55 7 -182 66 -223 104 -35 33 -58 25
-58 -22 0 -40 1 -40 -64 -20 -65 20 -64 20 -68 -17 -2 -26 -8 -34 -27 -36 -19
-3 -22 -8 -19 -33 6 -38 -10 -38 -110 1 -140 53 -202 59 -202 19 0 -24 -2 -25
-123 -36 -104 -10 -124 -21 -105 -56 18 -34 76 -50 156 -44 39 3 72 2 72 -1 0
-4 -18 -16 -40 -26 -40 -19 -45 -36 -9 -36 21 0 128 -35 138 -45 3 -4 -1 -10
-10 -15 -9 -5 -27 -19 -40 -30 l-24 -21 62 4 c42 2 69 9 82 21 11 10 25 15 31
11 6 -4 26 7 46 24 33 30 74 41 74 21 0 -5 -32 -35 -70 -66 -39 -31 -69 -62
-67 -68 6 -17 89 -10 128 9 19 10 50 31 69 46 67 55 106 33 95 -55 -7 -53 -6
-55 18 -61 34 -9 103 23 157 71 l42 38 -7 -37 c-6 -29 -4 -38 9 -43 27 -10 66
5 96 38 23 25 39 32 79 36 28 2 51 1 51 -2 0 -4 -7 -20 -15 -37 -28 -53 -138
-113 -305 -164 -211 -64 -245 -62 -372 28 -118 84 -185 105 -129 42 40 -46 39
-58 -4 -53 -38 4 -44 -2 -20 -22 16 -13 21 -40 8 -40 -5 0 -57 25 -118 56 -60
30 -111 50 -113 45 -2 -6 6 -24 18 -41 l21 -30 -130 0 c-72 0 -131 -4 -131 -8
0 -16 112 -75 163 -87 58 -13 71 -33 41 -66 -22 -25 -17 -29 47 -36 50 -4 58
-2 104 31 27 20 56 36 62 36 21 0 15 -26 -12 -58 -14 -17 -25 -32 -25 -35 0
-2 14 -7 31 -11 l31 -6 -21 -29 c-39 -55 -30 -60 61 -35 32 9 61 14 64 11 3
-3 1 -22 -5 -43 -11 -41 -8 -54 17 -54 9 0 31 -15 49 -32 l34 -32 48 17 c27 9
55 17 64 17 8 0 23 19 33 43 l18 42 4 -32 c5 -49 23 -58 78 -39 26 9 62 27 80
41 42 32 54 26 54 -26 0 -46 12 -49 65 -18 20 12 55 23 77 25 31 2 47 10 64
31 l23 28 1 -26 c0 -38 7 -40 61 -18 60 23 65 23 49 4 -18 -22 -152 -95 -250
-138 -185 -79 -373 -114 -477 -88 -26 7 -78 26 -116 43 -37 17 -70 29 -73 26
-3 -3 -6 -25 -7 -49 -2 -38 1 -45 32 -66 l34 -23 -86 0 c-121 0 -126 3 -78 55
55 60 67 83 45 92 -19 7 -39 2 -288 -71 -197 -58 -320 -75 -401 -57 -48 11
-67 22 -112 66 -60 58 -65 83 -21 99 19 7 46 4 95 -9 186 -49 205 -26 78 96
l-57 54 91 6 c88 5 121 18 121 44 0 8 -19 20 -42 28 l-43 14 41 21 c44 23 94
74 94 98 0 19 -9 18 -61 -5 -77 -34 -203 -44 -474 -38 -271 7 -370 19 -460 61
-64 29 -71 46 -17 46 58 0 66 10 59 69 -3 28 -4 51 -1 51 3 0 24 -15 47 -34
78 -63 148 -85 161 -50 5 13 15 15 55 9 44 -6 50 -4 68 20 16 22 30 28 81 34
34 4 65 10 68 14 15 15 -19 59 -99 129 -47 40 -83 74 -82 76 2 2 43 -4 91 -13
140 -24 246 -29 267 -13 15 11 16 18 8 41 -23 61 37 114 145 127 102 13 120
45 41 74 l-42 14 63 1 c72 1 102 13 102 42 0 11 10 24 25 31 23 10 23 12 10
38 -18 36 -62 53 -124 48 -55 -3 -62 1 -31 20 24 15 26 38 3 46 -9 4 -42 4
-72 0 l-54 -7 7 42 c7 46 6 47 -33 26 -16 -8 -80 -23 -142 -34 -63 -11 -136
-27 -164 -35 l-50 -15 83 77 c111 104 111 137 0 81 -41 -21 -88 -25 -88 -8 0
6 11 25 25 43 27 35 33 76 12 76 -6 0 -45 -25 -86 -56 -99 -74 -156 -102 -241
-115 -133 -20 -354 18 -497 87 -80 38 -109 69 -119 123 -3 20 -18 53 -32 74
-14 20 -22 40 -19 43 11 11 44 -7 58 -32 20 -38 60 -54 133 -54 36 0 102 -7
146 -16 45 -9 84 -14 87 -10 4 3 8 30 11 60 l4 54 76 -45 c92 -55 119 -65 143
-58 23 8 25 42 3 73 l-15 22 77 0 c43 0 114 -5 158 -11 70 -10 89 -9 139 6 32
9 61 23 64 31 3 7 -9 30 -26 51 -17 21 -31 43 -31 49 0 6 26 21 59 33 89 32
108 71 41 84 -17 4 -29 11 -26 16 4 5 39 27 80 50 70 38 206 139 234 173 11
13 5 17 -45 27 -99 19 -131 31 -164 58 -30 25 -33 26 -93 16 -33 -6 -62 -9
-64 -8 -2 2 6 20 17 40 11 20 17 43 14 51 -9 24 -72 16 -130 -16 -77 -44 -152
-60 -268 -59 -82 0 -96 2 -80 12 10 7 32 24 48 40 27 25 28 31 22 80 -11 80
-13 81 -80 40 -140 -84 -223 -103 -357 -80 -177 30 -415 127 -578 236 -145 98
-173 133 -66 86 32 -14 62 -23 67 -20 5 4 9 22 9 41 0 19 3 34 8 34 4 -1 19
-18 34 -40 24 -34 31 -39 67 -38 29 0 56 -10 100 -36 34 -21 65 -35 71 -31 5
3 10 32 10 64 0 32 3 61 6 64 4 4 22 -7 41 -23 55 -49 136 -85 180 -81 13 1
33 53 34 90 0 19 6 9 22 -34 19 -50 26 -60 52 -66 17 -4 51 -15 77 -25 l48
-18 48 47 c26 26 56 47 66 47 16 0 17 6 11 70 -4 39 -5 70 -3 70 3 0 31 -9 63
-20 67 -23 115 -26 115 -7 0 7 -12 30 -26 50 -14 21 -24 40 -22 43 2 2 21 7
41 11 l37 8 -35 49 c-65 92 -31 118 55 41 57 -51 80 -56 177 -40 l33 6 -26 39
c-41 61 -29 80 61 95 46 8 90 31 153 83 43 35 44 37 21 43 -13 4 -86 7 -161 8
-76 1 -138 4 -138 7 0 3 11 20 25 38 25 32 33 66 17 66 -5 0 -60 -31 -123 -69
-157 -95 -201 -104 -148 -29 25 35 21 42 -15 28 -57 -21 -62 19 -10 82 35 41
36 43 15 46 -26 4 -71 -23 -159 -95 -165 -137 -209 -143 -439 -67 -208 69
-367 164 -408 245 -25 47 -20 59 26 59 51 0 75 -13 119 -63 31 -35 42 -40 80
-41 l45 -1 -3 55 -3 55 60 -63 c62 -65 109 -92 159 -92 45 0 52 15 45 95 -10
128 28 149 121 64 61 -56 134 -89 196 -89 61 0 52 23 -45 117 -47 45 -85 87
-85 93 0 5 13 10 30 10 22 0 37 -10 61 -40 21 -26 39 -39 53 -38 12 1 35 -8
52 -21 33 -24 154 -43 154 -24 0 5 -19 27 -41 48 -50 46 -47 50 63 85 125 39
120 33 59 71 l-54 34 109 5 c113 6 142 15 168 52 39 56 3 83 -124 93 -144 10
-153 13 -146 39 16 64 -76 59 -239 -14 -143 -63 -161 -64 -145 -10 9 31 -3 50
-31 50 -28 0 -40 23 -30 58 6 18 6 34 1 37 -5 3 -41 -6 -81 -20 -40 -14 -74
-25 -76 -25 -2 0 -3 24 -3 54 0 72 -18 79 -74 28 -78 -71 -233 -152 -293 -152
-36 0 -174 38 -196 54 -16 12 -14 16 23 54 22 22 40 49 40 60 0 38 -26 46
-149 47 -131 2 -160 12 -210 71 -36 45 -77 151 -91 240 -11 71 -7 104 15 104
19 0 25 -23 25 -101 0 -74 19 -125 74 -198 38 -50 61 -64 87 -51 28 16 59 86
59 138 0 50 15 56 24 8 9 -45 58 -116 100 -145 39 -26 112 -38 136 -22 12 8
10 19 -12 73 -28 68 -27 84 2 68 19 -10 31 -1 43 33 12 33 57 12 57 -26 0 -43
107 -154 188 -197 20 -10 27 -9 43 6 10 9 19 27 19 38 0 45 20 94 41 99 16 4
19 11 14 29 -5 19 -2 17 21 -11 15 -18 41 -41 57 -52 26 -15 34 -16 56 -5 14
8 62 23 106 35 80 22 150 56 175 85 18 23 2 39 -83 83 -53 28 -73 45 -83 69
-11 27 -21 34 -51 40 -157 26 -232 52 -261 87 -10 12 -8 17 11 30 30 19 39 50
22 74 -18 24 -139 30 -175 9 -104 -63 -195 -87 -188 -49 2 11 27 28 65 43 34
14 65 28 69 32 3 4 -3 22 -15 41 -11 19 -21 37 -21 39 0 3 17 8 39 11 71 9
179 79 169 109 -6 16 -70 32 -191 48 -122 16 -129 23 -94 96 31 64 44 66 110
24 65 -41 78 -39 100 15 18 44 25 49 57 46 8 -1 20 9 25 21 7 15 25 26 59 34
62 16 73 26 60 61 -11 35 -64 62 -136 70 -88 10 -104 43 -40 84 21 14 38 34
40 47 2 13 24 38 55 61 29 21 58 45 65 53 33 41 -25 68 -145 68 -40 0 -73 3
-73 6 0 3 20 31 44 62 60 78 86 123 86 148 0 23 -29 54 -50 54 -7 0 -54 -40
-104 -90 -51 -49 -99 -90 -107 -90 -8 0 -32 20 -52 45 -21 25 -44 45 -52 45
-34 0 -115 -139 -156 -266 -20 -65 -28 -76 -133 -179 -116 -115 -208 -177
-229 -156 -7 7 -14 77 -17 184 -5 138 -10 179 -25 206 -14 27 -16 46 -11 99 4
37 12 78 19 92 14 29 68 58 117 62 l35 3 0 -60 c0 -58 1 -60 28 -63 23 -3 39
7 83 48 53 50 54 51 79 34 30 -20 109 -15 132 9 21 21 9 39 -80 124 -63 59
-80 71 -119 76 -92 13 -123 38 -71 58 20 7 54 6 126 -5 114 -19 177 -20 230
-5 61 17 60 60 -2 72 -15 3 -47 22 -71 42 -28 23 -51 35 -66 33 -13 -2 -23 0
-24 5 0 4 0 11 0 17 0 5 33 35 73 66 83 65 107 90 107 111 0 12 -9 15 -43 11
-53 -6 -231 -89 -268 -124 l-27 -26 5 65 c7 86 -8 95 -59 38 -48 -55 -105
-168 -114 -226 -5 -38 -9 -45 -24 -40 -12 4 -31 -5 -55 -26 -19 -17 -38 -29
-41 -27 -8 9 16 191 32 239 18 55 57 118 128 208 88 111 146 202 146 233 0 36
-33 45 -86 23 -51 -21 -81 -50 -109 -106 -62 -122 -96 -73 -94 134 1 108 -1
120 -24 159 -14 24 -41 58 -60 76 l-34 33 -7 -108z m-131 -1105 c57 -63 93
-137 102 -206 6 -54 -3 -122 -16 -122 -11 0 -44 84 -66 165 -9 33 -34 86 -56
117 -22 32 -42 72 -46 89 -6 29 -5 31 14 20 12 -6 42 -34 68 -63z m-61 -456
c76 -47 125 -101 143 -158 26 -84 7 -90 -61 -21 -30 30 -71 60 -90 67 -34 11
-93 78 -110 124 -15 42 40 37 118 -12z m800 -232 c14 -5 26 -16 26 -25 0 -19
-145 -135 -225 -180 -33 -18 -77 -38 -98 -43 -21 -6 -46 -21 -56 -33 -28 -35
-51 -19 -51 36 0 33 6 51 21 66 19 19 29 21 89 15 98 -9 128 -1 138 38 6 22
19 37 48 52 21 11 41 29 43 40 4 22 20 44 32 44 4 0 19 -4 33 -10z m-195 -518
c84 6 101 3 101 -17 0 -21 -32 -34 -97 -41 -57 -6 -59 -6 -120 41 -82 61 -86
70 -17 38 50 -23 66 -25 133 -21z m204 -63 c15 -9 19 -7 24 11 7 25 46 24 51
-2 4 -19 -82 -87 -110 -88 -30 0 -49 61 -32 105 6 14 9 14 28 0 11 -8 29 -20
39 -26z m447 -89 c28 -17 -21 -69 -54 -57 -24 9 -20 46 7 57 29 11 29 11 47 0z
m-750 -576 c13 -61 10 -247 -3 -261 -5 -4 -18 3 -29 17 -18 22 -20 36 -16 150
3 120 9 150 28 150 5 0 14 -25 20 -56z m-250 -404 c0 -23 -22 -35 -46 -26 -15
6 -15 8 1 26 23 26 45 26 45 0z m251 -140 l-4 -35 -10 28 c-5 15 -6 45 -1 65
l7 37 6 -30 c4 -16 4 -46 2 -65z m-381 55 c0 -19 -39 -40 -51 -28 -5 5 -7 17
-3 26 8 21 54 23 54 2z m-776 -94 c58 -52 110 -74 157 -64 15 3 51 25 80 50
61 52 84 53 84 3 0 -51 37 -53 95 -5 45 37 57 39 74 13 35 -57 -156 -122 -394
-135 -112 -6 -116 -5 -144 18 -34 30 -69 125 -55 151 16 30 46 21 103 -31z
m620 40 c9 -13 -32 -44 -49 -37 -13 4 -14 10 -5 26 11 20 44 27 54 11z m4885
-953 c-7 -12 -25 -40 -40 -61 -15 -21 -35 -62 -45 -90 -38 -116 -64 -135 -64
-46 0 63 29 121 88 177 50 47 81 57 61 20z m81 -331 c0 -21 -60 -87 -80 -87
-10 0 -44 -21 -75 -46 -31 -25 -59 -43 -62 -40 -15 15 19 86 55 114 75 59 162
91 162 59z m-695 -199 c6 -12 21 -25 35 -28 14 -3 31 -18 38 -33 15 -32 47
-42 106 -33 74 11 110 -17 98 -76 -4 -21 -30 -24 -46 -4 -6 7 -35 21 -63 30
-61 19 -140 64 -200 113 -49 39 -53 50 -20 55 31 5 41 1 52 -24z m-2017 -260
c16 -16 15 -48 -2 -48 -20 0 -39 27 -32 45 7 18 18 19 34 3z m2242 -78 c-54
-45 -83 -54 -143 -44 -36 6 -52 14 -52 24 0 12 16 15 80 15 56 0 89 5 110 17
43 25 45 21 5 -12z m-241 -101 c-14 -8 -78 21 -98 45 -11 13 -11 17 3 22 9 3
23 1 30 -6 11 -9 21 -8 43 4 l28 14 3 -35 c2 -21 -2 -39 -9 -44z m-354 -29 c0
-19 -32 -25 -50 -10 -24 20 -17 31 18 28 20 -2 32 -8 32 -18z m-4344 -194
c-16 -19 -190 -105 -220 -108 -44 -5 -33 21 21 48 68 35 168 73 192 74 15 0
16 -3 7 -14z m4935 -178 c4 -13 7 -52 7 -88 0 -75 -9 -110 -27 -110 -16 0 -28
77 -20 134 9 68 14 86 24 86 5 0 12 -10 16 -22z m212 -306 c3 -9 -3 -13 -19
-10 -12 1 -24 9 -27 16 -3 9 3 13 19 10 12 -1 24 -9 27 -16z m-236 -55 c3 -13
1 -32 -3 -43 -5 -13 -8 -7 -8 24 -1 46 4 55 11 19z m343 3 c3 -5 3 -15 0 -20
-7 -12 -45 5 -45 20 0 13 37 13 45 0z m135 -61 c0 -12 -21 -11 -40 1 -13 9
-13 11 0 19 15 10 40 -3 40 -20z m540 1 c0 -29 -36 -96 -55 -104 -27 -10 -108
-7 -227 9 -118 17 -203 48 -203 75 0 23 39 23 60 0 11 -12 31 -20 52 -20 31 0
33 2 27 25 -5 21 -3 25 14 25 11 0 34 -12 51 -26 62 -52 133 -49 194 6 39 36
87 41 87 10z m-3060 -805 c12 -7 10 -11 -10 -16 -34 -9 -159 -9 -190 1 l-25 7
25 12 c28 12 178 10 200 -4z m567 -351 c36 -16 40 -25 18 -44 -12 -10 -22 -7
-54 21 -62 53 -52 59 36 23z m-307 -85 l55 -41 80 5 c44 3 98 12 120 19 34 12
48 12 88 0 38 -11 72 -12 150 -5 103 9 173 4 149 -10 -18 -12 -15 -44 5 -51
10 -4 50 9 100 33 l83 40 0 -39 c0 -47 -7 -46 169 -26 104 11 116 14 135 39
12 15 29 27 39 27 14 0 13 -5 -8 -36 -14 -20 -25 -44 -25 -54 0 -40 -87 -90
-158 -90 -27 0 -94 -14 -148 -31 -87 -27 -108 -30 -172 -24 l-73 7 6 38 c8 49
-3 55 -70 36 l-54 -16 -47 30 c-27 16 -52 30 -56 30 -16 0 -8 -37 12 -55 11
-10 20 -22 20 -27 0 -13 -46 -9 -90 8 -47 19 -61 13 -35 -16 16 -18 16 -20 1
-26 -53 -20 -468 104 -556 166 -58 41 -36 60 69 60 56 0 74 4 102 24 19 13 39
25 44 25 6 1 35 -18 65 -40z m400 27 c0 -20 -26 -40 -35 -26 -10 16 2 40 20
40 8 0 15 -6 15 -14z m2290 -303 c36 -14 72 -32 80 -40 13 -14 11 -15 -24 -10
-40 6 -186 71 -186 82 0 10 59 -5 130 -32z m-2355 -423 c-3 -5 -11 -10 -16
-10 -6 0 -7 5 -4 10 3 6 11 10 16 10 6 0 7 -4 4 -10z m-49 -30 c7 0 11 -8 10
-17 -1 -14 9 -19 46 -23 26 -3 55 -13 66 -23 11 -10 35 -17 58 -17 22 0 45 -5
52 -12 15 -15 68 2 122 38 19 13 37 24 40 24 3 0 5 -17 5 -37 0 -37 1 -38 38
-41 115 -10 -48 -62 -238 -77 -101 -7 -236 15 -342 57 -48 19 -59 28 -61 49
-3 29 15 39 76 39 23 0 40 8 55 25 15 17 29 24 42 20 11 -2 25 -5 31 -5z
m-801 -921 c36 -9 45 -16 50 -40 13 -57 -13 -61 -144 -25 -101 27 -124 52 -38
42 50 -7 57 -5 67 13 13 25 9 24 65 10z m-4665 -226 c0 -16 -35 -43 -57 -43
-31 0 -29 16 5 34 29 16 52 20 52 9z m571 -357 c35 -41 66 -75 69 -75 3 -1 25
31 50 69 25 38 50 72 57 74 6 3 23 -13 38 -36 l27 -40 24 23 c13 12 26 20 28
18 3 -2 14 -25 25 -51 30 -71 64 -81 84 -26 7 20 55 31 117 26 l45 -4 -80 -39
c-84 -42 -97 -44 -327 -45 -21 0 -28 -5 -28 -20 0 -27 -10 -26 -100 15 -89 40
-92 41 -124 19 -22 -13 -28 -13 -60 0 -20 8 -36 21 -36 29 0 14 106 137 119
137 4 0 37 -33 72 -74z m699 36 c0 -13 -47 -32 -78 -32 l-27 1 24 19 c23 20
81 28 81 12z m3334 -550 c27 -28 55 -48 62 -45 7 3 29 -4 47 -16 44 -27 47
-27 47 9 0 52 35 36 138 -64 34 -33 62 -58 62 -56 0 3 -6 39 -14 80 -14 72
-10 100 13 86 6 -4 11 -16 11 -26 0 -28 13 -31 49 -9 37 23 36 23 154 -58 43
-29 83 -51 88 -48 5 4 6 30 3 59 l-6 53 89 6 c49 3 116 14 148 25 l59 20 53
-46 54 -47 -98 -33 c-216 -73 -491 -142 -565 -142 -44 0 -201 77 -348 171 -88
56 -116 83 -126 123 -6 25 -5 27 12 18 11 -6 41 -33 68 -60z m1163 11 c2 -6
-4 -18 -13 -27 -15 -16 -18 -16 -35 0 -25 22 -24 32 4 37 29 5 40 3 44 -10z
m3707 -139 c9 -3 16 -10 16 -15 0 -15 -37 -10 -50 6 -10 12 -10 15 3 15 8 0
22 -3 31 -6z m-617 -244 c20 -27 40 -50 43 -50 4 0 19 14 36 31 16 17 42 40
57 51 l29 21 44 -44 c24 -24 44 -48 44 -55 0 -22 -66 -34 -85 -15 -6 6 -31 2
-65 -10 -86 -31 -102 -34 -111 -16 -7 12 -29 15 -116 14 -92 0 -116 3 -163 23
-81 34 -84 43 -16 38 46 -4 63 -10 77 -27 23 -28 50 -16 69 29 14 34 13 34 41
18 19 -12 24 -10 42 15 11 15 24 27 29 27 4 0 24 -22 45 -50z m-401 15 c21
-16 12 -18 -35 -9 -17 4 -31 10 -31 15 0 14 44 10 66 -6z m-7526 -459 c0 -27
-24 -41 -47 -27 -14 7 -13 11 6 30 28 28 41 27 41 -3z m7780 -506 c0 -13 -37
-13 -45 0 -3 6 -3 15 0 20 7 12 45 -5 45 -20z m-4125 -579 c3 -5 -8 -19 -24
-30 -25 -18 -30 -19 -41 -6 -15 18 -13 21 20 34 32 13 38 13 45 2z"/>
</g>
</svg>
