<?xml version="1.0" standalone="no"?>
<!DOCTYPE svg PUBLIC "-//W3C//DTD SVG 20010904//EN"
 "http://www.w3.org/TR/2001/REC-SVG-20010904/DTD/svg10.dtd">
<svg version="1.0" xmlns="http://www.w3.org/2000/svg"
 width="744.000000pt" height="1280.000000pt" viewBox="0 0 744.000000 1280.000000"
 preserveAspectRatio="xMidYMid meet">
<metadata>
Created by potrace 1.15, written by Peter Selinger 2001-2017
</metadata>
<g transform="translate(0.000000,1280.000000) scale(0.100000,-0.100000)"
fill="#000000" stroke="none">
<path d="M3387 12714 c-4 -42 -7 -152 -7 -244 0 -92 -3 -187 -6 -211 l-6 -44
-117 118 c-64 64 -124 117 -133 117 -19 0 -31 -40 -22 -77 12 -51 43 -101 129
-209 47 -59 93 -123 102 -143 11 -24 17 -77 21 -163 4 -129 0 -178 -18 -178
-13 0 -40 54 -40 79 0 10 -12 28 -26 38 -23 17 -27 30 -38 124 -7 58 -21 122
-31 143 -19 40 -53 63 -80 52 -22 -8 -48 -73 -41 -102 3 -12 2 -25 -4 -29 -15
-9 -79 22 -136 66 -43 33 -59 40 -90 37 -21 -2 -41 -10 -47 -20 -17 -25 7 -89
58 -155 25 -32 66 -85 91 -117 24 -33 44 -66 42 -75 -2 -9 -23 -26 -48 -38
-56 -29 -64 -44 -50 -88 21 -64 92 -75 155 -25 21 17 42 27 46 23 5 -5 11 -45
15 -89 5 -60 3 -83 -6 -89 -7 -4 -54 13 -112 41 -96 46 -101 47 -114 29 -8
-10 -14 -29 -14 -40 0 -30 51 -98 124 -168 l61 -57 -37 6 c-51 8 -72 -1 -94
-42 -18 -33 -22 -35 -57 -31 -23 3 -84 35 -165 85 -171 107 -248 145 -278 138
-32 -8 -39 -44 -19 -92 22 -52 59 -89 127 -127 l58 -32 -69 -11 c-80 -14 -121
-37 -121 -69 0 -41 58 -73 102 -56 22 8 28 5 47 -20 15 -21 30 -29 51 -29 34
0 40 -15 10 -25 -11 -3 -20 -10 -20 -15 0 -10 101 -100 112 -100 5 0 8 -4 8
-9 0 -6 -21 -13 -47 -16 -74 -10 -166 -35 -190 -51 -44 -28 -17 -97 47 -124
25 -10 36 -10 70 4 22 9 63 16 91 16 46 0 55 -4 83 -35 27 -30 39 -35 75 -35
35 0 48 6 71 30 25 27 34 30 86 30 l59 0 -40 -32 c-102 -83 -115 -111 -61
-136 36 -18 103 -1 142 35 14 13 29 22 31 19 3 -3 1 -29 -5 -58 -13 -69 -3
-88 47 -88 39 0 71 23 71 51 1 8 8 1 16 -14 14 -27 17 -28 33 -13 10 9 28 39
41 66 13 28 26 50 30 50 7 0 45 -88 60 -139 18 -64 -2 -73 -190 -90 -246 -23
-307 -13 -452 71 -150 88 -234 109 -262 66 -14 -23 29 -68 109 -114 33 -18 57
-34 53 -34 -27 0 -162 35 -226 60 -69 27 -205 109 -283 171 -31 25 -98 35
-128 20 -26 -14 -28 -56 -5 -90 10 -14 13 -26 7 -32 -5 -5 -49 -14 -99 -20
-181 -20 -226 -28 -240 -39 -57 -48 65 -128 232 -151 51 -7 97 -7 150 0 104
15 106 14 47 -20 -53 -31 -113 -90 -113 -112 0 -32 31 -57 71 -57 56 0 95 19
169 82 76 64 100 78 134 78 47 0 37 -19 -26 -51 -69 -34 -108 -65 -108 -85 0
-7 16 -25 35 -40 28 -21 35 -33 35 -59 0 -19 7 -41 16 -49 19 -20 60 -21 67
-1 8 20 76 53 146 69 69 16 68 16 142 73 59 46 69 50 69 30 0 -19 -67 -81
-140 -130 -80 -53 -96 -75 -74 -105 11 -17 25 -22 57 -22 39 0 62 10 124 56
l22 16 -6 -55 c-3 -30 -1 -57 4 -60 18 -11 58 19 101 76 47 62 71 70 95 35
l15 -23 34 31 c29 28 41 32 110 37 147 10 288 116 288 217 0 46 17 36 30 -19
10 -43 9 -55 -5 -86 -36 -75 -216 -208 -461 -339 -77 -42 -145 -76 -151 -76
-6 0 -80 34 -166 76 -166 80 -222 97 -233 71 -6 -18 24 -82 61 -126 30 -35 25
-40 -12 -11 -18 14 -41 20 -75 20 -35 0 -76 12 -145 41 -108 46 -118 44 -118
-24 l0 -42 -70 -3 c-47 -2 -83 2 -113 13 -51 20 -86 14 -124 -23 -21 -19 -28
-35 -28 -63 0 -44 16 -53 73 -40 20 5 37 5 37 1 0 -5 -16 -27 -35 -50 -19 -23
-35 -45 -35 -50 0 -12 37 -19 79 -13 22 3 52 3 66 -1 25 -6 26 -9 19 -52 l-6
-45 68 3 69 3 -3 -46 c-2 -26 1 -50 6 -53 5 -3 33 4 61 15 44 19 55 20 81 9
71 -29 94 -114 44 -161 l-26 -24 -21 26 c-29 35 -53 46 -115 55 -66 8 -122 -2
-122 -23 0 -13 -8 -14 -50 -9 -42 6 -51 4 -57 -10 -5 -12 8 -30 45 -63 28 -25
54 -58 58 -73 7 -30 -12 -125 -27 -133 -12 -8 -45 11 -114 67 -97 79 -178 109
-192 72 -3 -8 5 -38 18 -65 20 -43 21 -52 9 -60 -20 -12 -18 -12 -150 11 -143
25 -210 26 -210 5 0 -40 142 -123 225 -133 56 -6 63 -16 36 -53 -11 -15 -21
-35 -21 -43 0 -20 53 -36 117 -36 63 0 93 -13 93 -39 0 -29 24 -42 87 -48 32
-3 63 -10 69 -15 7 -5 15 -30 19 -55 l7 -47 56 59 56 59 11 -35 c9 -25 17 -33
32 -31 24 3 38 -13 78 -87 17 -31 45 -66 65 -79 19 -13 44 -42 55 -65 17 -34
27 -43 65 -54 26 -8 60 -29 85 -53 22 -22 45 -40 51 -40 6 0 30 17 55 37 77
64 85 69 44 24 -69 -74 -175 -117 -413 -166 -190 -39 -251 -33 -371 39 -106
63 -138 55 -126 -33 6 -45 4 -51 -16 -61 -31 -17 -134 -5 -177 21 -22 12 -44
18 -58 15 -28 -7 -84 -54 -84 -70 0 -7 34 -34 75 -60 86 -54 97 -71 93 -129
l-3 -42 70 -5 70 -5 0 -47 c0 -64 20 -83 89 -83 41 0 62 6 94 28 23 15 44 27
47 27 3 0 -4 -16 -14 -36 -20 -38 -19 -57 8 -87 13 -16 25 -17 103 -11 76 6
88 4 88 -9 0 -39 -90 -78 -226 -98 -93 -14 -164 0 -228 46 -82 58 -145 56
-132 -6 7 -35 -15 -44 -85 -34 -75 10 -170 8 -182 -4 -17 -17 18 -48 86 -73
77 -30 121 -69 114 -104 -11 -61 67 -94 152 -63 59 20 63 17 71 -56 l5 -50 60
0 c55 0 60 -2 56 -20 -2 -11 -5 -31 -5 -45 -1 -24 1 -25 52 -22 47 4 54 2 59
-17 7 -28 42 -27 79 1 16 12 64 55 106 94 86 82 129 100 191 83 45 -12 93 -51
83 -67 -5 -8 -38 -12 -90 -12 -123 0 -134 -28 -56 -145 21 -32 37 -62 34 -67
-3 -4 -19 -8 -35 -8 -39 0 -90 -22 -136 -59 -21 -16 -60 -35 -86 -41 -27 -6
-61 -20 -77 -31 -23 -17 -50 -23 -147 -30 -65 -4 -138 -15 -163 -24 -26 -9
-83 -17 -136 -18 -56 -2 -97 -7 -107 -15 -8 -7 -20 -32 -26 -56 -6 -24 -18
-49 -27 -56 -17 -15 -185 -39 -271 -40 -46 0 -53 -3 -53 -19 0 -40 154 -126
245 -137 81 -9 81 -9 36 -63 -23 -27 -41 -54 -41 -60 0 -7 21 -11 53 -11 67 0
81 -9 75 -50 -6 -42 5 -45 100 -26 91 18 140 20 177 6 25 -9 26 -13 19 -55 -5
-36 -3 -46 10 -51 24 -9 63 21 97 76 17 28 35 50 40 50 5 0 9 -19 9 -43 0 -71
12 -79 128 -85 101 -5 101 -5 130 24 16 16 39 57 53 92 13 34 26 62 29 62 4 0
16 -31 29 -70 12 -38 26 -70 30 -70 4 0 29 29 56 65 27 36 53 65 56 65 4 0 10
-22 14 -48 13 -97 43 -95 85 5 31 74 37 83 56 83 12 0 14 -7 9 -31 -7 -32 -7
-32 26 -25 19 4 60 9 92 13 50 5 57 4 57 -12 0 -56 -227 -175 -334 -175 -31 0
-70 -18 -120 -54 -21 -15 -53 -20 -156 -26 -72 -4 -133 -10 -137 -14 -17 -17
16 -63 67 -93 47 -29 63 -33 121 -33 118 0 151 -31 68 -64 -65 -26 -254 -45
-659 -66 -544 -28 -651 -40 -691 -75 -15 -14 -29 -17 -73 -11 -63 7 -86 1 -86
-24 0 -41 114 -100 192 -100 37 0 68 -16 68 -36 0 -8 -20 -23 -44 -34 -25 -10
-72 -44 -106 -75 l-61 -57 80 7 c94 9 127 3 134 -25 4 -17 13 -20 61 -20 51 0
57 -3 66 -24 17 -47 64 -39 139 24 43 36 81 52 81 33 0 -5 -21 -35 -45 -67
-51 -68 -48 -86 17 -86 44 0 74 13 98 43 28 34 62 16 90 -45 37 -79 62 -78
188 7 45 30 83 55 85 55 2 0 -2 -33 -10 -73 -29 -151 24 -157 202 -21 21 16
36 24 34 19 -54 -129 -52 -135 33 -132 52 2 69 -2 96 -22 18 -13 35 -22 36
-20 2 2 8 14 14 25 23 45 86 35 97 -15 8 -38 33 -46 114 -37 61 7 105 -2 93
-20 -34 -50 -330 -152 -577 -198 -261 -49 -320 -47 -422 13 -83 49 -149 64
-159 36 -7 -18 34 -64 81 -91 15 -8 3 -9 -45 -3 -36 5 -134 13 -219 19 -115 8
-187 20 -289 46 -193 49 -217 45 -145 -22 60 -54 205 -121 298 -136 l80 -13
-92 -7 c-107 -8 -133 -19 -133 -53 0 -35 32 -52 125 -64 141 -20 135 -16 87
-64 -42 -43 -54 -77 -28 -77 8 0 40 10 71 22 60 23 74 18 75 -23 0 -31 27 -42
88 -35 53 6 172 34 217 51 12 5 3 -10 -24 -38 -50 -52 -48 -55 38 -59 57 -3
65 -10 76 -61 3 -15 11 -27 17 -27 7 0 41 28 76 63 l63 62 -47 -90 c-60 -114
-57 -130 20 -122 60 6 138 42 191 88 42 37 45 26 14 -55 -36 -97 -89 -125
-412 -221 -191 -57 -231 -58 -381 -9 -113 37 -252 55 -310 40 -32 -8 -32 -14
-2 -59 13 -19 22 -37 20 -40 -6 -6 -60 5 -159 32 -105 28 -186 37 -213 22 -12
-6 -22 -16 -22 -21 0 -5 28 -42 62 -81 35 -40 56 -70 48 -67 -110 42 -328 66
-403 45 -41 -11 -33 -45 18 -74 76 -43 165 -67 275 -72 l105 -6 -63 -49 c-72
-57 -105 -104 -100 -143 3 -26 6 -28 53 -28 l50 0 10 -58 c11 -63 31 -87 72
-87 28 0 77 -24 116 -56 16 -13 36 -24 45 -24 21 0 78 34 114 68 l27 25 35
-26 c38 -29 80 -106 71 -130 -4 -8 -15 -17 -25 -20 -13 -3 -16 -11 -13 -31 l6
-27 -90 7 c-77 6 -91 4 -96 -9 -8 -21 -68 -37 -142 -37 -58 0 -131 -13 -142
-24 -13 -13 10 -56 42 -76 46 -29 119 -34 243 -17 56 7 102 12 102 11 0 -1
-33 -20 -74 -43 -129 -70 -162 -114 -120 -155 19 -20 16 -20 92 4 75 24 98 25
59 4 -17 -9 -27 -22 -25 -32 3 -14 16 -17 76 -16 l72 0 -25 -26 c-14 -14 -25
-29 -25 -33 0 -16 63 -5 133 23 42 16 80 30 86 30 22 0 10 -29 -19 -50 -68
-49 -16 -73 89 -41 90 27 92 27 84 -10 l-6 -31 49 8 49 7 -19 -22 c-36 -40
-74 -43 -536 -50 -245 -3 -451 -10 -458 -14 -23 -15 -12 -27 44 -43 60 -17
132 -73 120 -92 -11 -18 -72 -31 -180 -38 -118 -8 -181 -34 -181 -73 0 -18 10
-31 35 -45 29 -18 51 -21 130 -20 78 1 112 7 191 32 132 44 157 42 104 -8 -39
-37 -102 -122 -108 -147 -12 -52 59 -56 177 -8 79 32 82 30 91 -55 3 -30 12
-71 19 -90 11 -31 16 -35 42 -32 45 5 142 62 179 104 30 36 34 38 49 23 21
-21 21 -24 -10 -128 -14 -49 -24 -90 -21 -93 17 -18 136 69 285 208 134 125
153 131 70 21 -25 -32 -42 -67 -45 -91 -5 -39 9 -82 27 -82 5 0 44 30 86 67
l77 67 -7 -48 c-15 -101 -34 -113 -218 -146 -252 -44 -309 -44 -443 3 -79 28
-164 41 -183 29 -17 -11 -6 -37 21 -51 17 -9 -3 -10 -94 -6 -63 3 -118 3 -122
-1 -3 -4 5 -21 18 -39 46 -59 38 -66 -68 -59 -207 15 -301 -71 -102 -93 37 -5
70 -13 72 -20 6 -18 -54 -57 -157 -102 -90 -39 -170 -91 -170 -111 0 -5 10
-14 21 -21 27 -14 98 -1 262 48 137 41 170 35 88 -15 -59 -36 -87 -82 -71
-112 12 -23 33 -25 96 -9 25 6 47 9 50 6 3 -3 -8 -24 -25 -48 -38 -51 -39 -69
-6 -69 30 0 86 27 162 78 29 19 56 32 59 29 4 -3 1 -27 -5 -53 -7 -25 -9 -49
-6 -52 2 -3 22 7 42 21 20 15 39 25 41 22 2 -2 -1 -18 -7 -36 -6 -18 -9 -34
-7 -36 2 -3 32 18 67 46 36 29 73 51 87 51 22 0 23 -3 20 -52 l-3 -53 35 2
c19 2 74 23 122 48 84 43 128 56 128 36 0 -17 35 -21 90 -11 29 6 55 8 58 6
11 -11 -68 -38 -235 -79 -206 -52 -263 -76 -263 -110 0 -53 49 -60 191 -26 49
11 94 19 101 17 6 -2 -30 -48 -81 -101 -88 -93 -101 -117 -62 -117 37 0 174
41 251 75 83 36 110 42 110 25 0 -5 -20 -41 -45 -80 -25 -39 -45 -80 -45 -91
0 -18 5 -21 48 -19 69 4 71 3 80 -32 4 -18 15 -34 24 -36 8 -2 40 18 71 43 31
25 58 45 61 45 3 0 6 -20 6 -43 0 -36 4 -46 23 -54 60 -28 183 30 259 122 l51
60 -9 -50 c-34 -200 16 -213 183 -52 60 58 94 85 97 76 2 -8 9 -47 15 -87 16
-122 52 -140 130 -67 26 25 53 45 59 45 6 0 23 -16 38 -35 32 -42 50 -44 59
-7 11 47 33 72 64 72 35 0 57 23 77 83 17 49 32 58 55 31 20 -24 65 -44 99
-44 42 0 73 34 128 139 24 45 55 95 69 111 27 33 60 41 49 13 -4 -9 -10 -36
-13 -60 -5 -38 -3 -43 13 -43 30 1 126 72 148 109 11 19 23 50 26 70 l6 36 17
-38 c31 -72 63 -26 73 106 4 48 9 87 12 87 2 0 13 -11 24 -25 24 -31 69 -55
102 -55 13 0 32 -8 42 -17 15 -15 16 -31 10 -130 -13 -236 -44 -375 -122 -547
-30 -65 -54 -121 -54 -123 0 -2 186 -2 413 -1 l412 3 3 33 c2 19 -10 72 -27
121 -43 125 -64 248 -59 352 1 48 6 90 10 94 16 16 49 -11 98 -80 77 -109 128
-134 100 -49 -7 19 -9 38 -5 42 9 10 31 -21 76 -110 21 -43 47 -81 56 -86 10
-5 46 -12 80 -15 34 -4 82 -17 108 -29 44 -21 47 -22 56 -5 16 27 38 21 97
-28 53 -44 91 -57 93 -32 1 6 1 32 -1 57 -2 44 -2 44 17 28 10 -10 40 -27 67
-38 46 -21 48 -21 68 -3 34 31 147 22 307 -23 22 -7 23 -5 16 33 -6 36 -3 44
20 65 l26 25 -24 29 c-13 16 -29 39 -36 52 -17 33 5 29 111 -18 133 -59 164
-53 114 21 l-25 36 36 -18 c26 -13 48 -17 73 -13 35 6 38 4 48 -25 17 -48 71
-121 90 -121 10 0 34 11 54 25 20 14 41 25 46 25 12 0 64 -58 88 -99 10 -17
21 -31 24 -31 3 0 16 29 28 65 13 36 30 65 37 65 7 0 25 -16 39 -35 49 -64 76
-65 139 -7 32 31 35 65 7 107 -11 17 -17 38 -14 47 3 10 -4 38 -15 63 -11 25
-16 45 -11 45 4 0 50 -37 102 -83 119 -106 175 -147 203 -147 14 0 36 15 55
36 25 29 31 44 28 70 -2 19 -2 34 0 34 2 0 31 -20 65 -44 107 -75 208 -116
234 -95 15 13 6 34 -40 91 -16 20 -26 41 -23 46 3 6 38 19 76 28 39 10 70 21
70 24 0 3 -34 34 -75 68 -129 108 -95 110 111 9 161 -80 192 -91 214 -77 23
14 -2 53 -54 81 -25 13 -46 27 -46 30 0 3 42 9 94 12 55 4 115 14 146 26 50
19 90 46 90 61 0 4 -39 10 -87 14 -200 15 -643 98 -731 136 -63 28 -102 59
-102 81 0 23 10 23 74 4 27 -8 66 -15 88 -15 31 0 38 4 38 20 0 11 -14 29 -30
42 -16 12 -30 25 -30 30 0 4 54 7 119 5 87 -1 123 2 133 11 18 18 1 42 -51 71
-23 13 -40 26 -37 29 4 3 59 6 124 7 123 1 166 12 160 43 -2 11 -28 25 -78 41
-41 13 -82 25 -90 28 -8 3 23 11 69 18 126 19 140 46 49 97 -37 21 -38 23 -16
29 13 3 68 2 123 -2 139 -11 205 -11 205 1 0 17 -90 69 -129 75 -59 10 -103
33 -99 53 3 15 18 17 124 17 86 0 126 4 138 14 9 7 14 17 11 21 -7 12 -88 30
-208 45 -140 19 -215 34 -222 45 -10 15 47 38 186 74 74 19 160 44 192 56 90
34 143 88 102 104 -28 10 -163 -12 -368 -61 -59 -14 -111 -23 -114 -20 -3 4
31 41 76 84 148 142 93 150 -167 25 -92 -45 -192 -88 -222 -96 -71 -21 -217
-22 -301 -2 -205 48 -637 238 -868 381 -98 61 -126 88 -137 129 l-7 30 29 -21
c16 -12 47 -40 69 -62 27 -28 45 -39 57 -35 10 3 31 -4 47 -15 41 -29 51 -26
51 14 0 19 4 35 9 35 13 0 60 -38 130 -104 l63 -61 -6 40 c-18 103 -19 155 -5
155 24 0 159 -69 223 -113 106 -74 116 -70 98 40 -6 37 -9 70 -6 74 2 4 20 -2
39 -15 41 -28 90 -39 129 -28 31 8 39 19 56 65 14 39 36 34 88 -22 55 -58 157
-131 184 -131 30 0 22 44 -17 92 -106 131 -114 148 -69 148 14 0 46 15 71 33
l46 32 113 -3 114 -2 31 30 c37 35 48 36 154 11 117 -28 168 -33 199 -21 64
24 6 71 -186 150 -71 29 -128 56 -128 62 0 5 8 7 18 4 108 -33 208 -49 317
-49 138 0 198 15 203 50 6 42 -66 65 -241 79 l-88 6 68 23 c37 13 75 33 86 46
18 22 18 24 0 37 -19 15 -10 15 -444 -5 -81 -3 -154 -3 -163 0 -15 6 -14 12 9
56 34 69 26 85 -39 77 -28 -3 -79 -15 -113 -26 -185 -58 -318 -44 -680 71
-332 105 -501 180 -540 238 -30 45 -21 55 43 47 47 -5 55 -4 64 14 15 28 34
26 167 -24 71 -27 150 -48 198 -55 109 -14 373 -22 379 -12 3 5 -5 24 -17 42
-43 63 -41 64 19 13 106 -90 144 -107 144 -61 0 49 16 54 72 23 87 -47 100
-48 150 -12 25 17 72 44 106 60 34 16 62 34 62 39 0 5 -19 27 -42 48 -24 21
-38 38 -33 38 6 1 44 -10 85 -24 l75 -24 25 29 c35 39 50 45 220 90 147 39
210 62 210 79 0 5 20 6 43 4 43 -5 107 17 107 36 0 5 -30 19 -67 32 l-68 24 0
50 c0 51 -8 61 -70 80 -18 6 -18 8 9 22 16 8 78 33 138 54 233 83 266 127 71
94 -103 -17 -549 -33 -597 -21 -33 8 -33 21 1 38 14 7 28 18 30 25 8 24 -43
35 -205 43 -179 10 -251 19 -376 51 -109 28 -158 54 -154 82 3 19 12 23 63 30
40 5 66 14 77 27 11 14 29 20 57 20 28 0 44 5 47 15 9 21 17 19 98 -20 57 -28
84 -36 139 -38 37 -1 67 0 67 3 0 3 -30 29 -66 59 -45 38 -61 57 -52 62 7 4
76 10 153 14 l140 8 -115 56 -114 56 84 5 c99 7 128 20 210 95 32 29 78 62
102 73 73 32 113 118 67 143 -29 15 -76 7 -242 -42 -90 -27 -146 -39 -163 -35
-25 7 -26 9 -19 61 9 73 4 73 -173 18 -164 -50 -192 -51 -352 -10 -223 58
-401 131 -408 168 -4 21 25 29 110 29 56 0 71 4 96 25 17 14 36 25 44 25 7 0
37 -18 67 -40 48 -36 59 -40 113 -40 79 0 198 27 205 47 4 11 -8 30 -36 56
-23 21 -41 40 -39 42 2 2 41 -10 87 -26 46 -16 86 -29 88 -29 3 0 2 18 -2 39
-5 33 -3 41 14 50 11 6 31 11 45 11 30 0 41 15 37 55 -1 21 5 37 18 49 27 25
26 31 -5 59 -51 44 -50 51 15 120 130 140 111 145 -204 52 -178 -53 -250 -67
-355 -68 -79 -1 -102 2 -135 20 -46 24 -85 58 -110 96 -37 58 29 74 150 36 36
-11 81 -19 98 -17 54 5 46 32 -32 106 -39 37 -71 71 -71 76 0 5 26 6 58 3 67
-7 141 5 153 24 11 19 -11 39 -52 48 l-34 7 40 21 c59 31 116 99 98 117 -3 3
-22 -3 -43 -14 -71 -36 -161 -45 -450 -44 -297 0 -425 14 -521 55 -73 32 -79
45 -23 52 61 7 68 15 56 71 -11 54 -4 58 40 20 39 -32 121 -74 147 -74 10 0
22 7 25 16 5 14 16 16 56 11 50 -6 52 -5 88 38 7 9 29 15 52 15 49 0 90 15 90
33 0 14 -76 90 -155 156 l-40 33 50 -6 c28 -4 100 -13 160 -21 68 -9 122 -12
140 -6 28 7 30 11 27 51 -5 70 47 112 153 125 67 8 95 20 95 39 0 13 -41 36
-65 36 -8 0 -15 5 -15 10 0 6 28 10 64 10 81 0 96 6 96 37 0 17 7 27 21 30 30
8 20 43 -21 71 -30 21 -43 23 -95 19 -56 -5 -59 -4 -37 10 26 18 29 52 5 55
-10 0 -44 0 -77 -2 -63 -2 -62 -4 -39 58 7 16 -8 15 -54 -2 -21 -8 -74 -20
-118 -26 -75 -11 -171 -32 -212 -47 -10 -3 22 32 71 79 93 89 107 122 38 92
-123 -54 -163 -49 -112 14 31 38 37 71 14 79 -5 2 -44 -22 -85 -52 -116 -88
-183 -116 -292 -122 -201 -12 -485 63 -565 150 -13 14 -28 45 -33 68 -6 24
-21 58 -35 76 -29 38 -30 43 -4 43 12 0 29 -14 42 -35 29 -43 52 -52 158 -59
47 -2 116 -10 153 -17 37 -7 69 -10 72 -7 3 3 8 28 12 57 3 28 8 51 10 51 2 0
39 -20 81 -44 90 -52 126 -63 147 -46 19 16 19 44 0 60 -40 33 0 36 265 15 67
-5 160 17 167 41 2 6 -10 28 -27 49 -16 21 -30 44 -30 51 0 8 23 20 54 29 58
17 92 45 83 70 -4 8 -17 15 -31 15 -49 0 -35 19 48 65 79 45 255 173 256 186
0 4 -28 12 -62 18 -96 18 -157 41 -168 62 -12 21 -50 24 -115 9 -22 -5 -41 -7
-44 -4 -3 2 5 21 16 42 11 20 18 43 16 50 -8 22 -74 13 -145 -22 -90 -45 -153
-57 -269 -54 l-94 3 44 28 44 29 -5 69 c-3 38 -8 72 -11 75 -3 3 -37 -13 -77
-36 -177 -103 -305 -110 -551 -29 -112 37 -253 99 -343 151 -174 100 -271 197
-124 122 49 -25 52 -25 65 -8 7 10 13 29 13 43 0 25 2 24 36 -17 31 -37 41
-42 64 -37 20 4 46 -5 102 -34 42 -22 78 -37 82 -34 3 4 6 29 6 57 0 77 11 86
55 48 47 -42 127 -82 163 -82 32 0 48 26 54 85 3 27 5 23 26 -31 20 -56 25
-62 55 -66 17 -3 53 -14 79 -24 l48 -18 48 47 c26 26 56 47 66 47 17 0 18 6
12 70 -4 40 -3 70 2 70 5 0 35 -9 67 -20 104 -36 134 -23 91 39 -14 20 -26 42
-26 48 0 7 18 13 41 15 l41 3 -36 45 c-69 86 -34 122 49 50 25 -22 57 -43 71
-46 26 -7 132 1 141 10 2 2 -6 23 -19 45 -31 54 -19 72 55 87 61 13 121 44
182 98 l40 35 -167 1 c-111 0 -168 4 -168 11 0 5 11 27 25 47 51 74 24 70
-125 -19 -83 -49 -126 -70 -144 -67 l-26 3 26 39 26 38 -40 -7 c-24 -4 -42 -2
-46 4 -7 11 12 51 46 93 57 72 -36 33 -162 -67 -103 -82 -169 -115 -232 -115
-57 0 -252 55 -370 105 -146 62 -251 139 -279 208 -17 40 -2 51 57 42 39 -6
56 -15 95 -56 43 -45 51 -49 94 -49 l48 0 -6 50 c-3 28 -2 50 2 50 5 0 25 -20
45 -45 59 -72 149 -115 200 -95 25 9 25 10 19 93 -5 79 -4 85 17 100 30 21 60
9 120 -47 51 -48 122 -79 183 -80 67 -1 59 21 -43 120 -92 89 -101 112 -40 99
20 -4 39 -19 53 -41 17 -26 29 -34 51 -34 17 0 40 -10 53 -22 19 -18 39 -23
93 -26 39 -3 70 0 70 5 0 5 -18 22 -40 39 -22 16 -40 34 -40 40 0 15 88 52
156 67 30 6 54 14 54 18 0 4 -22 21 -50 38 -27 17 -50 34 -50 37 0 4 33 4 73
0 100 -9 169 7 202 46 30 36 31 49 6 72 -15 13 -48 20 -133 27 -143 12 -151
14 -144 45 5 19 1 27 -18 36 -37 16 -114 -2 -232 -55 -55 -25 -111 -47 -124
-49 -23 -3 -25 0 -25 42 0 42 -2 45 -30 50 -28 5 -30 8 -30 50 0 52 -3 53 -98
18 -32 -11 -60 -18 -64 -14 -3 3 -7 27 -7 53 -1 64 -22 67 -83 13 -70 -62
-233 -140 -291 -140 -51 0 -124 17 -186 44 l-40 17 42 42 c43 44 52 76 28 96
-8 7 -63 12 -137 14 -134 3 -161 11 -211 64 -66 69 -137 324 -97 349 22 13 34
-19 39 -104 5 -84 8 -91 52 -157 51 -76 79 -99 109 -90 26 9 57 72 67 137 l8
53 17 -50 c32 -95 117 -165 198 -165 55 0 62 15 33 71 -22 45 -32 89 -18 89 3
0 14 -5 25 -10 16 -9 21 -7 28 14 20 51 53 44 71 -17 15 -50 117 -153 179
-182 38 -17 43 -17 57 -3 9 8 18 35 21 59 7 54 19 79 38 79 9 0 15 9 15 21 0
19 7 15 50 -25 50 -47 68 -54 87 -35 5 5 46 19 89 30 88 21 202 73 211 95 8
20 -12 40 -65 65 -61 29 -112 67 -112 83 0 25 -28 37 -112 51 -96 16 -163 38
-198 65 l-25 19 28 25 c35 32 36 69 2 84 -42 19 -135 15 -175 -8 -68 -39 -122
-60 -156 -60 -66 0 -30 41 61 70 52 17 58 28 34 61 -10 15 -19 31 -19 36 0 5
27 15 60 21 63 13 142 64 148 95 5 24 -26 34 -172 56 -74 11 -132 25 -137 32
-10 16 36 108 58 116 10 4 40 -7 74 -25 32 -18 64 -32 71 -32 8 0 24 23 36 51
19 47 24 51 47 45 21 -5 27 -2 34 17 9 24 36 37 77 37 11 0 29 9 39 20 40 44
-21 97 -124 107 -31 3 -64 10 -73 15 -30 15 -21 46 22 73 25 16 40 33 40 45 0
13 17 32 47 53 131 90 115 127 -57 127 -50 0 -90 2 -90 5 0 3 26 40 58 83 32
43 64 93 71 111 12 28 12 34 -4 51 -34 38 -61 26 -157 -70 -49 -49 -95 -90
-102 -90 -8 0 -30 20 -50 45 -21 25 -46 45 -56 45 -40 0 -129 -146 -167 -273
-32 -109 -328 -366 -371 -322 -4 3 -9 84 -12 179 -5 151 -8 175 -24 191 -16
16 -18 31 -14 106 6 124 28 151 134 166 l43 6 -6 -52 c-11 -95 31 -107 112
-30 l54 51 40 -15 c46 -19 103 -13 127 14 15 17 14 20 -11 54 -36 47 -141 134
-168 139 -12 3 -38 7 -58 11 -19 3 -44 12 -55 20 -32 24 0 37 81 31 219 -17
274 -18 309 -6 51 17 47 50 -8 68 -22 7 -57 28 -78 48 -33 29 -44 34 -69 29
-57 -13 -32 23 78 109 108 84 116 118 26 101 -50 -9 -232 -96 -261 -125 -13
-12 -25 -20 -27 -18 -2 2 0 21 5 43 11 48 3 85 -17 85 -41 0 -149 -174 -160
-259 -5 -36 -9 -42 -25 -38 -13 4 -33 -6 -59 -30 l-39 -35 0 63 c0 87 23 189
56 249 15 27 61 91 102 141 82 101 162 217 162 233 -1 34 -36 48 -85 35 -48
-13 -102 -63 -127 -115 -27 -59 -44 -72 -66 -50 -14 14 -18 44 -22 164 -6 165
-12 181 -88 255 l-39 38 -6 -77z m-146 -1133 c64 -65 93 -116 109 -187 11 -49
4 -154 -10 -154 -10 0 -54 108 -74 181 -9 30 -29 73 -45 96 -91 125 -78 165
20 64z m-84 -451 c109 -55 170 -122 188 -207 10 -50 -21 -43 -79 16 -27 28
-63 55 -80 62 -42 17 -84 56 -107 102 -34 65 -13 72 78 27z m867 -246 c25 -10
19 -27 -21 -66 -89 -83 -231 -172 -296 -184 -24 -4 -44 -15 -54 -30 -8 -13
-21 -24 -29 -24 -21 0 -36 39 -30 76 11 58 26 65 135 62 105 -3 121 2 121 36
0 27 25 51 62 60 16 3 30 15 34 29 13 44 37 57 78 41z m-222 -519 c104 0 131
-10 104 -38 -9 -9 -44 -18 -81 -22 -72 -8 -93 1 -175 74 l-35 32 45 -23 c38
-19 61 -23 142 -23z m221 -66 c15 -9 19 -7 24 10 6 25 41 28 50 5 7 -20 -28
-57 -77 -79 -51 -23 -70 -10 -70 50 0 51 7 60 34 40 12 -8 29 -20 39 -26z
m467 -119 c-14 -26 -49 -35 -67 -17 -18 18 -10 35 21 47 31 12 59 -6 46 -30z
m-779 -552 c10 -51 10 -213 0 -248 l-7 -24 -20 20 c-15 15 -23 40 -27 85 -7
64 4 197 18 219 11 18 26 -3 36 -52z m-254 -395 c4 -11 -23 -43 -35 -43 -4 0
-14 5 -22 10 -13 9 -11 13 9 31 25 20 42 21 48 2z m255 -142 c-3 -23 -7 -29
-13 -20 -11 17 -12 83 -2 93 11 11 21 -35 15 -73z m-392 56 c0 -19 -21 -37
-42 -37 -18 0 -25 29 -11 43 12 12 53 7 53 -6z m-802 -101 c52 -49 87 -66 133
-66 37 0 62 12 113 57 22 18 50 33 63 33 21 0 24 -4 21 -32 -3 -30 -1 -33 29
-36 23 -2 40 5 66 27 38 34 71 40 81 14 10 -24 -29 -60 -88 -82 -74 -27 -241
-53 -357 -54 -98 -2 -101 -1 -125 26 -26 30 -59 130 -49 147 15 25 66 10 113
-34z m642 34 c0 -5 -11 -17 -26 -26 -28 -19 -49 -8 -38 19 7 18 64 24 64 7z
m2333 -1751 c13 -21 2 -50 -16 -43 -17 6 -38 49 -29 58 10 11 34 2 45 -15z
m-2792 -393 c-17 -20 -190 -105 -228 -112 -62 -12 -37 21 45 59 133 63 209 85
183 53z m2946 -1408 c28 -11 27 -12 -22 -18 -91 -13 -231 6 -167 23 36 10 162
6 189 -5z m693 -178 c0 -5 -15 -10 -34 -10 -19 0 -38 5 -41 10 -4 6 10 10 34
10 23 0 41 -4 41 -10z m30 -830 c43 -22 55 -46 18 -34 -34 10 -76 32 -83 44
-10 17 23 11 65 -10z m-5800 -1330 c-12 -23 -57 -37 -72 -22 -11 11 34 41 65
42 15 0 16 -3 7 -20z m610 -356 c35 -36 63 -64 65 -62 1 2 20 30 42 63 61 91
64 92 102 44 l33 -40 23 21 c25 23 32 18 55 -38 16 -42 48 -66 67 -50 7 6 13
17 13 24 0 21 44 34 113 33 l62 -1 -85 -41 c-90 -44 -100 -46 -344 -47 -21 0
-27 -4 -22 -15 11 -30 -23 -26 -104 9 -92 41 -101 42 -134 20 -22 -13 -28 -13
-60 0 -20 8 -36 21 -36 28 0 7 28 44 62 82 55 61 63 66 74 51 7 -9 40 -46 74
-81z m710 47 c0 -11 -54 -31 -83 -31 -19 0 -20 1 -2 20 18 20 85 29 85 11z
m-347 -1357 c11 -11 -13 -44 -32 -44 -27 0 -33 12 -14 32 16 18 35 23 46 12z"/>
</g>
</svg>
