<?xml version="1.0" standalone="no"?>
<!DOCTYPE svg PUBLIC "-//W3C//DTD SVG 20010904//EN"
 "http://www.w3.org/TR/2001/REC-SVG-20010904/DTD/svg10.dtd">
<svg version="1.0" xmlns="http://www.w3.org/2000/svg"
 width="695.000000pt" height="1280.000000pt" viewBox="0 0 695.000000 1280.000000"
 preserveAspectRatio="xMidYMid meet">
<metadata>
Created by potrace 1.15, written by Peter Selinger 2001-2017
</metadata>
<g transform="translate(0.000000,1280.000000) scale(0.100000,-0.100000)"
fill="#000000" stroke="none">
<path d="M2006 12773 c-3 -16 -15 -93 -26 -173 -62 -452 -217 -1217 -365
-1805 -87 -347 -150 -543 -214 -671 -26 -52 -46 -94 -45 -94 8 0 226 81 269
99 27 12 71 38 98 57 l48 35 -6 -38 c-60 -355 -244 -1099 -411 -1663 -79 -267
-223 -692 -289 -855 -97 -240 -166 -364 -253 -456 -45 -48 -68 -79 -57 -76 11
3 58 13 105 22 225 43 494 192 747 412 l75 66 -7 -64 c-51 -476 -389 -1928
-645 -2774 -74 -242 -157 -478 -211 -598 -27 -60 -49 -110 -49 -112 0 -10 153
41 201 67 31 16 108 71 170 121 151 121 240 187 252 187 6 0 7 -22 2 -57 -49
-420 -468 -1329 -1183 -2573 -74 -129 -153 -264 -174 -299 -28 -46 -38 -72
-36 -95 l3 -33 210 57 c696 187 1211 384 1433 549 l83 62 21 -53 c35 -87 128
-261 247 -463 150 -255 207 -373 237 -492 13 -54 25 -102 27 -106 3 -9 17 1
331 236 253 190 375 285 443 351 24 22 45 37 48 34 13 -12 -28 -1148 -44
-1226 -5 -30 -14 -37 -63 -58 -33 -14 -96 -28 -150 -34 -141 -16 -141 -41 2
-54 83 -7 150 -23 150 -34 0 -5 -26 -16 -57 -25 -67 -20 -135 -56 -141 -74 -5
-18 60 -16 247 7 l154 18 96 -29 c82 -26 257 -69 277 -69 7 0 1 35 -11 63 -7
17 1 17 151 11 99 -4 168 -2 184 4 25 10 24 10 -20 30 l-45 21 78 -1 c76 -1
106 9 93 31 -4 6 -20 11 -36 11 -43 0 -132 36 -177 71 -21 17 -55 55 -75 86
l-38 55 0 467 c0 258 3 529 6 603 l7 135 75 -91 c98 -119 287 -306 547 -544
116 -105 233 -218 260 -251 28 -33 53 -60 56 -60 4 -1 12 52 19 117 16 141 8
479 -15 722 -22 229 -83 662 -102 724 -3 12 18 -1 61 -37 342 -290 889 -507
1434 -568 213 -24 489 -4 601 43 l31 13 -163 215 c-90 118 -218 285 -285 370
-143 180 -195 256 -250 366 -32 64 -92 213 -92 229 0 2 29 -9 65 -25 200 -90
477 -144 958 -186 l77 -7 0 28 c0 20 -20 48 -79 110 -359 380 -1194 1623
-1716 2555 -90 160 -271 522 -299 599 l-17 43 33 -27 c18 -15 87 -76 153 -135
206 -185 334 -278 467 -340 67 -31 288 -111 288 -104 0 3 -57 80 -126 172
-338 447 -690 1025 -1419 2327 -120 215 -229 407 -242 428 -13 20 -20 37 -16
37 4 0 75 -27 158 -60 121 -48 652 -210 687 -210 5 0 -33 48 -83 107 -215 250
-472 624 -816 1188 -342 560 -730 1255 -701 1255 7 0 29 -5 48 -10 48 -15 165
-14 225 0 63 16 285 102 285 111 0 4 -29 23 -64 43 -240 134 -557 462 -926
956 -233 314 -493 708 -669 1018 -47 82 -56 92 -81 92 -23 0 -29 -5 -34 -27z"/>
</g>
</svg>
