<svg width="600" height="124" viewBox="0 0 600 124" fill="none" xmlns="http://www.w3.org/2000/svg">
<path d="M555.866 70.1017C501.64 20.98 368.604 137.212 298.501 113.091C161.69 66.0172 48.7322 115.836 1.00001 117.536" stroke="url(#paint0_linear_2_22)" stroke-width="3"/>
<path d="M102.744 86.512C98.648 86.1707 94.3387 86 89.816 86C85.2933 86 81.7093 86.1707 79.064 86.512L78.552 84.72C79.576 84.3787 80.5573 83.8667 81.496 83.184C82.4347 82.416 82.904 81.6053 82.904 80.752C82.904 74.5227 77.2293 53.7013 65.88 18.288C64.856 15.0453 63.832 12.1867 62.808 9.712C52.824 9.712 46.424 11.0773 43.608 13.808C43.0107 15.0027 42.712 16.88 42.712 19.44C42.712 22 43.1387 23.7493 43.992 24.688L43.864 25.584C41.7307 26.864 39.5973 28.656 37.464 30.96C36.44 30.8747 35.6293 30.448 35.032 29.68C34.3493 28.912 34.008 28.016 34.008 26.992C34.008 22.8107 36.5253 17.8187 41.56 12.016C46.5947 6.21333 51.288 2.544 55.64 1.008C56.3227 1.008 59.3947 1.30666 64.856 1.904C70.3173 2.416 74.6693 2.672 77.912 2.672H92.888C111.32 2.672 124.675 2.24533 132.952 1.392L133.464 4.592C129.709 5.78666 125.613 6.768 121.176 7.536C121.603 10.5227 121.816 13.2533 121.816 15.728C121.816 18.1173 121.475 21.1467 120.792 24.816C124.035 39.3227 129.155 56.7733 136.152 77.168C142.467 61.2107 146.605 49.136 148.568 40.944C150.616 32.6667 151.64 25.584 151.64 19.696C151.64 11.6747 149.507 6.42666 145.24 3.952L145.752 2.16C148.397 2.50133 152.621 2.672 158.424 2.672C164.312 2.672 169.773 2.33066 174.808 1.64799L175.32 4.848C171.48 6.04267 167.384 6.93866 163.032 7.536C163.459 10.5227 163.672 12.9973 163.672 14.96C163.672 22.128 161.88 30.3627 158.296 39.664C154.797 48.9653 148.397 62.96 139.096 81.648C140.547 82.416 142.509 83.1413 144.984 83.824L144.6 86.512C140.504 86.1707 136.195 86 131.672 86C127.149 86 123.565 86.1707 120.92 86.512L120.408 84.72C121.432 84.3787 122.413 83.8667 123.352 83.184C124.291 82.416 124.76 81.6053 124.76 80.752C124.76 75.7173 121.731 62.96 115.672 42.48H115.16C111.149 52.8053 105.176 65.8613 97.24 81.648C98.6907 82.416 100.653 83.1413 103.128 83.824L102.744 86.512ZM94.296 77.168C100.611 61.2107 104.749 49.136 106.712 40.944C108.76 32.6667 109.784 25.6267 109.784 19.824C109.784 13.936 108.717 10.1387 106.584 8.432C104.451 6.64 100.056 5.744 93.4 5.744C86.8293 5.744 81.0267 6.512 75.992 8.048C76.76 15.0453 78.936 25.4133 82.52 39.152C86.1893 52.8907 90.1147 65.5627 94.296 77.168Z" fill="url(#paint1_linear_2_22)"/>
<path d="M187.768 54.384C188.024 61.9787 189.432 67.9093 191.992 72.176C194.552 76.4427 198.904 78.576 205.048 78.576C211.192 78.576 216.867 75.9733 222.072 70.768L223.864 72.56C218.147 79.8133 211.277 84.8053 203.256 87.536C194.979 87.536 188.493 84.9333 183.8 79.728C179.107 74.4373 176.76 67.3547 176.76 58.48C176.76 49.52 179.533 41.1147 185.08 33.264C190.627 25.4133 197.709 20.2507 206.328 17.776C212.557 17.776 219.597 18.416 227.448 19.696L227.32 22.512C225.699 22.512 224.163 22.8107 222.712 23.408C221.091 27.248 220.024 31.8133 219.512 37.104H216.312C215.629 34.2027 215.288 31.216 215.288 28.144C212.045 26.5227 208.205 25.712 203.768 25.712C199.331 25.712 195.661 26.9067 192.76 29.296C189.859 34.5867 188.195 40.9013 187.768 48.24C191.352 48.8373 195.192 49.136 199.288 49.136C206.371 49.136 210.637 47.6427 212.088 44.656L214.776 45.04C214.008 47.6 213.624 50.1173 213.624 52.592C213.624 55.0667 213.923 58.096 214.52 61.68L211.448 62.192C210.509 59.632 209.827 56.9867 209.4 54.256C205.987 53.9147 202.573 53.744 199.16 53.744C195.832 53.744 192.035 53.9573 187.768 54.384Z" fill="url(#paint2_linear_2_22)"/>
<path d="M233.239 19.568L263.831 18.672C272.194 18.672 277.783 19.696 280.599 21.744C283.33 23.6213 284.695 26.5227 284.695 30.448C284.695 34.288 283.287 37.7867 280.471 40.944C277.74 44.016 274.37 46.32 270.359 47.856V48.368C275.479 48.368 279.618 49.4773 282.775 51.696C285.932 53.8293 287.511 57.3707 287.511 62.32C287.511 67.184 284.78 72.2187 279.319 77.424C273.858 82.544 268.268 85.9147 262.551 87.536C260.503 87.536 257.687 87.1093 254.103 86.256C250.604 85.4027 247.746 84.5493 245.527 83.696C244.588 84.8053 243.735 86.384 242.967 88.432L240.279 87.792C241.9 80.1973 242.711 69.488 242.711 55.664C242.711 41.7547 242.327 31.344 241.559 24.432C238.658 23.3227 235.884 22.768 233.239 22.768V19.568ZM258.455 46.576C263.746 46.576 267.586 45.8507 269.975 44.4C272.108 41.7547 273.175 38.384 273.175 34.288C273.175 26.864 269.122 23.152 261.015 23.152C258.199 23.152 255.596 23.6213 253.207 24.56C252.61 30.3627 252.311 39.28 252.311 51.312C252.311 63.344 252.482 71.7493 252.823 76.528C256.322 78.4053 260.162 79.344 264.343 79.344C268.61 79.344 271.852 78.5333 274.071 76.912C275.522 74.0107 276.247 70.512 276.247 66.416C276.247 60.784 274.583 56.816 271.255 54.512C267.927 52.208 263.106 51.056 256.791 51.056L257.303 46.576H258.455Z" fill="url(#paint3_linear_2_22)"/>
<path d="M296.908 84.464C296.908 76.9547 298.529 70.4693 301.772 65.008C305.1 59.5467 308.556 56.816 312.14 56.816C313.079 56.816 314.017 57.1147 314.956 57.712L315.34 58.608C314.231 60.7413 313.548 63.4293 313.292 66.672L312.524 67.184C312.183 67.0133 311.543 66.928 310.604 66.928C309.665 66.928 308.257 67.44 306.38 68.464C304.588 69.488 303.18 70.512 302.156 71.536C301.559 72.7307 301.26 74.096 301.26 75.632C301.26 79.6427 303.948 83.0987 309.324 86C314.785 88.816 320.033 90.224 325.068 90.224C335.564 90.224 340.812 84.2507 340.812 72.304C340.812 67.7813 336.503 62.1067 327.884 55.28C324.3 52.3787 320.716 49.4773 317.132 46.576C308.513 39.7493 304.204 33.8187 304.204 28.784C304.204 22.8107 306.892 17.264 312.268 12.144C317.644 6.93866 323.745 3.14133 330.572 0.751999C337.911 0.751999 344.865 1.47733 351.436 2.92799V5.488C346.999 9.584 344.524 15.8987 344.012 24.432H340.812C340.812 19.9093 340.599 15.9413 340.172 12.528C336.503 10.8213 332.492 9.96799 328.14 9.96799C323.873 9.96799 320.247 10.9067 317.26 12.784C314.273 14.576 312.78 16.88 312.78 19.696C312.78 22.512 314.017 25.3707 316.492 28.272C319.052 31.088 322.124 33.8613 325.708 36.592C329.292 39.2373 332.833 41.968 336.332 44.784C339.916 47.5147 342.945 50.5013 345.42 53.744C347.98 56.9013 349.26 59.9733 349.26 62.96C349.26 71.4933 346.913 79.088 342.22 85.744C337.527 92.4 331.127 97.392 323.02 100.72C312.353 99.6107 303.82 96.624 297.42 91.76C297.079 89.3707 296.908 86.9387 296.908 84.464Z" fill="url(#paint4_linear_2_22)"/>
<path d="M400.952 18.288C405.304 18.9707 410.211 19.312 415.672 19.312C421.219 19.312 426.211 19.0133 430.648 18.416L431.032 21.616C427.789 22.4693 424.248 23.1093 420.408 23.536C419.555 28.8267 419.128 37.5307 419.128 49.648V55.664C419.128 67.952 419.555 76.656 420.408 81.776C424.248 82.2027 427.789 82.8427 431.032 83.696L430.648 86.896C426.211 86.2987 421.219 86 415.672 86C410.211 86 405.304 86.3413 400.952 87.024L400.44 83.696C402.829 82.928 405.517 82.288 408.504 81.776C409.187 72.1333 409.571 62.4907 409.656 52.848C404.195 52.336 399.16 52.08 394.552 52.08C389.944 52.08 384.952 52.336 379.576 52.848C379.576 66.928 379.96 76.5707 380.728 81.776C384.568 82.2027 388.109 82.8427 391.352 83.696L390.968 86.896C386.531 86.2987 381.539 86 375.992 86C370.531 86 365.624 86.3413 361.272 87.024L360.76 83.696C363.149 82.928 365.837 82.288 368.824 81.776C369.592 75.632 369.976 66.928 369.976 55.664V49.648C369.976 38.384 369.549 29.68 368.696 23.536C365.709 23.024 363.021 22.384 360.632 21.616L361.144 18.288C365.496 18.9707 370.403 19.312 375.864 19.312C381.411 19.312 386.403 19.0133 390.84 18.416L391.224 21.616C387.981 22.4693 384.44 23.1093 380.6 23.536C379.917 28.4853 379.576 36.1227 379.576 46.448C384.355 47.1307 389.475 47.472 394.936 47.472C400.483 47.472 405.389 47.1733 409.656 46.576C409.571 39.3227 409.187 31.6427 408.504 23.536C405.517 23.024 402.829 22.384 400.44 21.616L400.952 18.288Z" fill="url(#paint5_linear_2_22)"/>
<path d="M493.133 49.648V55.664C493.133 67.3547 493.56 76.1013 494.413 81.904C498.338 82.416 501.581 83.0133 504.141 83.696L503.757 86.896C499.576 86.2987 495.266 86 490.829 86C486.477 86 483.49 86.128 481.869 86.384L481.357 84.72C482.125 83.8667 482.637 81.4347 482.893 77.424C478.456 82.032 473.336 85.4027 467.533 87.536C452.856 87.536 445.517 78.7893 445.517 61.296C445.517 57.456 445.816 51.312 446.413 42.864C447.01 34.416 447.309 29.4667 447.309 28.016C447.309 26.5653 447.053 25.1573 446.541 23.792V23.664C442.957 23.0667 440.098 22.4267 437.965 21.744L438.477 18.288C443.426 18.9707 447.906 19.312 451.917 19.312C455.928 19.312 459.213 19.0987 461.773 18.672L462.285 20.848C459.213 22.4693 457.421 25.4133 456.909 29.68C455.885 37.872 455.373 46.2773 455.373 54.896C455.373 63.5147 456.354 69.6587 458.317 73.328C460.365 76.912 464.12 78.704 469.581 78.704C475.128 78.704 479.608 77.1253 483.021 73.968C483.362 67.1413 483.533 59.0773 483.533 49.776C483.533 40.4747 483.192 31.728 482.509 23.536C478.669 23.1093 475.128 22.4693 471.885 21.616L472.269 18.416C476.706 19.0133 481.656 19.312 487.117 19.312C492.664 19.312 497.613 18.9707 501.965 18.288L502.477 21.616C500.088 22.384 497.4 23.024 494.413 23.536C493.56 29.2533 493.133 37.9573 493.133 49.648Z" fill="url(#paint6_linear_2_22)"/>
<path d="M546.781 78.832C546.781 73.5413 545.458 65.648 542.813 55.152C540.168 44.5707 537.224 34.3307 533.981 24.432L533.469 24.56L530.269 48.368C528.904 58.1813 528.221 67.0133 528.221 74.864C528.221 79.6427 529.714 82.8427 532.701 84.464L532.189 86.64C529.629 86.2133 526.258 86 522.077 86C517.981 86 513.458 86.3413 508.509 87.024L507.997 83.696C510.898 82.7573 513.629 82.0747 516.189 81.648L528.093 23.28C523.656 22.512 520.37 21.8293 518.237 21.232L518.621 17.904C524.765 18.8427 530.44 19.312 535.645 19.312C540.936 19.312 545.032 19.0133 547.933 18.416L548.189 20.592C545.885 21.1893 544.733 22.1707 544.733 23.536C544.733 25.4133 547.378 36.2507 552.669 56.048L555.485 65.648L556.381 65.392C556.381 63.1733 560.264 49.264 568.029 23.664C568.029 22.2133 566.877 21.1893 564.573 20.592L564.829 18.416C567.73 19.0133 571.826 19.312 577.117 19.312C582.493 19.312 588.21 18.8427 594.269 17.904L594.653 21.232C592.349 21.8293 589.405 22.4693 585.821 23.152C585.565 25.2 585.437 28.2293 585.437 32.24C585.437 36.1653 585.992 44.272 587.101 56.56C588.21 68.848 589.234 77.296 590.173 81.904C593.33 82.3307 596.573 82.928 599.901 83.696L599.517 86.896C595.08 86.2987 590.13 86 584.669 86C579.293 86 574.429 86.3413 570.077 87.024L569.565 83.696C572.381 82.8427 575.41 82.2027 578.653 81.776C578.397 61.6373 577.032 42.6507 574.557 24.816H574.173C565.384 50.7573 560.69 67.568 560.093 75.248C558.301 75.8453 556.21 76.9547 553.821 78.576C551.432 80.112 549.597 81.648 548.317 83.184L546.781 82.16V78.832Z" fill="url(#paint7_linear_2_22)"/>
<defs>
<linearGradient id="paint0_linear_2_22" x1="274.5" y1="67" x2="278.13" y2="120.667" gradientUnits="userSpaceOnUse">
<stop offset="0.505208" stop-color="#3B76C4"/>
<stop offset="0.505308" stop-color="#F9DD17"/>
</linearGradient>
<linearGradient id="paint1_linear_2_22" x1="319.5" y1="-26" x2="328" y2="118" gradientUnits="userSpaceOnUse">
<stop offset="0.541567" stop-color="#3A75C4"/>
<stop offset="0.541667" stop-color="#F9DD16"/>
</linearGradient>
<linearGradient id="paint2_linear_2_22" x1="319.5" y1="-26" x2="328" y2="118" gradientUnits="userSpaceOnUse">
<stop offset="0.541567" stop-color="#3A75C4"/>
<stop offset="0.541667" stop-color="#F9DD16"/>
</linearGradient>
<linearGradient id="paint3_linear_2_22" x1="319.5" y1="-26" x2="328" y2="118" gradientUnits="userSpaceOnUse">
<stop offset="0.541567" stop-color="#3A75C4"/>
<stop offset="0.541667" stop-color="#F9DD16"/>
</linearGradient>
<linearGradient id="paint4_linear_2_22" x1="319.5" y1="-26" x2="328" y2="118" gradientUnits="userSpaceOnUse">
<stop offset="0.541567" stop-color="#3A75C4"/>
<stop offset="0.541667" stop-color="#F9DD16"/>
</linearGradient>
<linearGradient id="paint5_linear_2_22" x1="319.5" y1="-26" x2="328" y2="118" gradientUnits="userSpaceOnUse">
<stop offset="0.541567" stop-color="#3A75C4"/>
<stop offset="0.541667" stop-color="#F9DD16"/>
</linearGradient>
<linearGradient id="paint6_linear_2_22" x1="319.5" y1="-26" x2="328" y2="118" gradientUnits="userSpaceOnUse">
<stop offset="0.541567" stop-color="#3A75C4"/>
<stop offset="0.541667" stop-color="#F9DD16"/>
</linearGradient>
<linearGradient id="paint7_linear_2_22" x1="319.5" y1="-26" x2="328" y2="118" gradientUnits="userSpaceOnUse">
<stop offset="0.541567" stop-color="#3A75C4"/>
<stop offset="0.541667" stop-color="#F9DD16"/>
</linearGradient>
</defs>
</svg>
